<svg width="25" height="25" viewBox="0 0 25 25" fill="none" xmlns="http://www.w3.org/2000/svg">
<path d="M8.1276 2.08301H16.8776C20.2109 2.08301 22.9193 4.79134 22.9193 8.12467V16.8747C22.9193 18.477 22.2827 20.0137 21.1497 21.1468C20.0167 22.2798 18.48 22.9163 16.8776 22.9163H8.1276C4.79427 22.9163 2.08594 20.208 2.08594 16.8747V8.12467C2.08594 6.52233 2.72247 4.9856 3.8555 3.85257C4.98853 2.71954 6.52525 2.08301 8.1276 2.08301ZM7.91927 4.16634C6.92471 4.16634 5.97088 4.56143 5.26762 5.26469C4.56436 5.96795 4.16927 6.92178 4.16927 7.91634V17.083C4.16927 19.1559 5.84635 20.833 7.91927 20.833H17.0859C18.0805 20.833 19.0343 20.4379 19.7376 19.7347C20.4408 19.0314 20.8359 18.0776 20.8359 17.083V7.91634C20.8359 5.84342 19.1589 4.16634 17.0859 4.16634H7.91927ZM17.9714 5.72884C18.3167 5.72884 18.6479 5.86602 18.8921 6.11021C19.1363 6.3544 19.2734 6.68559 19.2734 7.03092C19.2734 7.37626 19.1363 7.70745 18.8921 7.95164C18.6479 8.19582 18.3167 8.33301 17.9714 8.33301C17.626 8.33301 17.2948 8.19582 17.0506 7.95164C16.8065 7.70745 16.6693 7.37626 16.6693 7.03092C16.6693 6.68559 16.8065 6.3544 17.0506 6.11021C17.2948 5.86602 17.626 5.72884 17.9714 5.72884ZM12.5026 7.29134C13.8839 7.29134 15.2087 7.84007 16.1855 8.81683C17.1622 9.79358 17.7109 11.1183 17.7109 12.4997C17.7109 13.881 17.1622 15.2058 16.1855 16.1825C15.2087 17.1593 13.8839 17.708 12.5026 17.708C11.1213 17.708 9.79651 17.1593 8.81976 16.1825C7.843 15.2058 7.29427 13.881 7.29427 12.4997C7.29427 11.1183 7.843 9.79358 8.81976 8.81683C9.79651 7.84007 11.1213 7.29134 12.5026 7.29134ZM12.5026 9.37467C11.6738 9.37467 10.8789 9.70391 10.2929 10.29C9.70684 10.876 9.3776 11.6709 9.3776 12.4997C9.3776 13.3285 9.70684 14.1233 10.2929 14.7094C10.8789 15.2954 11.6738 15.6247 12.5026 15.6247C13.3314 15.6247 14.1263 15.2954 14.7123 14.7094C15.2984 14.1233 15.6276 13.3285 15.6276 12.4997C15.6276 11.6709 15.2984 10.876 14.7123 10.29C14.1263 9.70391 13.3314 9.37467 12.5026 9.37467Z" fill="#343239"/>
</svg>
