<svg width="30" height="30" viewBox="0 0 20 21" fill="none" xmlns="http://www.w3.org/2000/svg">
<g clip-path="url(#clip0_505_44285)">
<path d="M19.3048 2.49984L19.9715 2.45584C19.9628 2.32496 19.9158 2.19954 19.8362 2.09528C19.7566 1.99103 19.648 1.91257 19.524 1.86973C19.4 1.82688 19.2662 1.82156 19.1392 1.85443C19.0122 1.8873 18.8978 1.9569 18.8102 2.05451L19.3048 2.49984ZM18.6408 6.44517C18.6408 6.26836 18.5706 6.09879 18.4456 5.97377C18.3205 5.84875 18.151 5.77851 17.9742 5.77851C17.7973 5.77851 17.6278 5.84875 17.5027 5.97377C17.3777 6.09879 17.3075 6.26836 17.3075 6.44517H18.6408ZM0.667484 17.1665V16.4998C0.524336 16.4997 0.384933 16.5456 0.269898 16.6308C0.154863 16.716 0.0703045 16.8359 0.0287325 16.9729C-0.0128395 17.1099 -0.0092174 17.2566 0.0390631 17.3914C0.0873435 17.5261 0.177718 17.6418 0.296817 17.7212L0.667484 17.1665ZM1.99815 2.49984L2.62348 2.26651C2.57804 2.14478 2.49802 2.03899 2.39326 1.96214C2.2885 1.88529 2.16356 1.84072 2.03381 1.83392C1.90406 1.82712 1.77515 1.85839 1.66293 1.92387C1.55071 1.98935 1.46007 2.0862 1.40215 2.20251L1.99815 2.49984ZM7.32348 14.4998L7.79548 14.9705C7.87556 14.8902 7.93382 14.7907 7.96475 14.6816C7.99567 14.5725 7.99824 14.4573 7.97221 14.3469C7.94617 14.2365 7.8924 14.1345 7.81598 14.0507C7.73956 13.9669 7.64302 13.9039 7.53548 13.8678L7.32348 14.4998ZM16.9555 3.79717L16.4622 4.24517L16.7022 4.51051L17.0555 4.45717L16.9555 3.79717ZM18.6408 2.54384C18.7088 3.58117 18.6448 4.21051 18.4768 4.68517C18.3142 5.14517 18.0288 5.52384 17.5128 6.01851L18.4355 6.98117C19.0195 6.42117 19.4702 5.87184 19.7342 5.13051C19.9915 4.40251 20.0448 3.55984 19.9715 2.45584L18.6408 2.54384ZM18.6408 7.41584V6.44517H17.3075V7.41717H18.6408V7.41584ZM9.32082 6.55451V7.83317H10.6542V6.55451H9.32082ZM9.32082 7.83317V8.49984H10.6542V7.83317H9.32082ZM14.0342 1.83317C13.4145 1.83352 12.801 1.95592 12.2286 2.19338C11.6562 2.43084 11.1363 2.77871 10.6983 3.21713C10.2604 3.65554 9.91313 4.17592 9.67632 4.74855C9.43951 5.32118 9.3178 5.93484 9.31815 6.55451H10.6515C10.6511 6.10983 10.7384 5.66943 10.9083 5.25849C11.0782 4.84754 11.3274 4.47409 11.6416 4.15946C11.9559 3.84484 12.329 3.59521 12.7398 3.42484C13.1505 3.25446 13.5908 3.16668 14.0355 3.16651V1.83317H14.0342ZM17.3062 7.41584C17.3075 13.1705 12.6502 17.8332 6.90748 17.8332V19.1665C13.3875 19.1665 18.6408 13.9052 18.6408 7.41584H17.3062ZM1.37415 2.73317C2.09948 4.66917 4.81948 8.49984 9.98748 8.49984V7.16651C5.56615 7.16651 3.22882 3.88651 2.62215 2.26651L1.37415 2.73317ZM1.40215 2.20251C0.00615025 4.99717 -0.208516 7.70917 0.80615 10.0185C1.81815 12.3212 3.99548 14.0918 7.11282 15.1318L7.53548 13.8678C4.66215 12.9078 2.84482 11.3452 2.02615 9.48117C1.21015 7.62384 1.32882 5.33451 2.59548 2.79717L1.40215 2.20251ZM6.85148 14.0292C6.04882 14.8332 3.63548 16.4998 0.667484 16.4998V17.8332C4.08882 17.8332 6.82348 15.9452 7.79548 14.9705L6.85148 14.0292ZM17.4502 3.35051C17.0191 2.87244 16.4923 2.49033 15.9041 2.22893C15.3158 1.96754 14.6792 1.8327 14.0355 1.83317V3.16651C14.9968 3.16651 15.8622 3.58117 16.4622 4.24517L17.4502 3.35051ZM17.0555 4.45717C18.1175 4.28366 19.0875 3.74973 19.8022 2.94517L18.8102 2.05451C18.3018 2.62883 17.6119 3.01144 16.8555 3.13851L17.0555 4.45717ZM0.296817 17.7212C2.48482 19.1798 4.77815 19.1665 6.90748 19.1665V17.8332C4.73415 17.8332 2.84348 17.8185 1.03815 16.6118L0.296817 17.7212Z" fill="#343239"/>
</g>
<defs>
<clipPath id="clip0_505_44285">
<rect width="20" height="20" fill="white" transform="translate(0 0.5)"/>
</clipPath>
</defs>
</svg>
