<svg width="30" height="30" viewBox="0 0 23 23" fill="none" xmlns="http://www.w3.org/2000/svg">
<path d="M18.2565 4.7058C17.3779 3.81831 16.3314 3.11465 15.178 2.63585C14.0246 2.15705 12.7874 1.9127 11.5386 1.91705C6.30609 1.91705 2.04151 6.18163 2.04151 11.4141C2.04151 13.0912 2.48234 14.7204 3.30651 16.1579L1.96484 21.0837L6.99609 19.7612C8.38568 20.5183 9.94776 20.9208 11.5386 20.9208C16.7711 20.9208 21.0357 16.6562 21.0357 11.4237C21.0357 8.88413 20.0486 6.49788 18.2565 4.7058ZM11.5386 19.3108C10.1203 19.3108 8.73068 18.9275 7.51359 18.2087L7.22609 18.0362L4.23609 18.822L5.03151 15.9087L4.83984 15.6116C4.05185 14.3533 3.63344 12.8988 3.63234 11.4141C3.63234 7.0633 7.17818 3.51747 11.529 3.51747C13.6373 3.51747 15.6211 4.34163 17.1065 5.83663C17.842 6.56876 18.4249 7.4396 18.8213 8.39866C19.2178 9.35773 19.42 10.3859 19.4161 11.4237C19.4353 15.7745 15.8894 19.3108 11.5386 19.3108ZM15.8703 13.4075C15.6307 13.2925 14.4615 12.7175 14.2507 12.6312C14.0303 12.5545 13.8769 12.5162 13.714 12.7462C13.5511 12.9858 13.1007 13.5225 12.9665 13.6758C12.8323 13.8387 12.6886 13.8579 12.449 13.7333C12.2094 13.6183 11.4428 13.3595 10.5419 12.5545C9.83276 11.922 9.36318 11.1458 9.21943 10.9062C9.08526 10.6666 9.20026 10.542 9.32484 10.4175C9.43026 10.312 9.56443 10.1395 9.67943 10.0054C9.79443 9.87121 9.84234 9.7658 9.91901 9.61246C9.99568 9.44955 9.95734 9.31538 9.89984 9.20038C9.84234 9.08538 9.36318 7.91622 9.17151 7.43705C8.97984 6.97705 8.77859 7.03455 8.63484 7.02497H8.17484C8.01193 7.02497 7.76276 7.08247 7.54234 7.32205C7.33151 7.56163 6.71818 8.13663 6.71818 9.3058C6.71818 10.475 7.57109 11.6058 7.68609 11.7591C7.80109 11.922 9.36318 14.3179 11.7398 15.3433C12.3053 15.5925 12.7461 15.7362 13.0911 15.8416C13.6565 16.0237 14.174 15.995 14.5861 15.9375C15.0461 15.8704 15.9948 15.3625 16.1865 14.8066C16.3878 14.2508 16.3878 13.7812 16.3207 13.6758C16.2536 13.5704 16.1098 13.5225 15.8703 13.4075Z" fill="#343239"/>
</svg>
