<svg width="30" height="30" viewBox="0 0 24 25" fill="none" xmlns="http://www.w3.org/2000/svg">
<path d="M22.5 12.434C22.5 12.3824 22.5 12.3238 22.4977 12.2559C22.4953 12.066 22.4906 11.8527 22.4859 11.6254C22.4672 10.9715 22.4344 10.3199 22.3828 9.70586C22.3125 8.85977 22.2094 8.1543 22.0687 7.62461C21.9204 7.07183 21.6295 6.56769 21.2252 6.16257C20.8209 5.75745 20.3173 5.46554 19.7648 5.31602C19.1016 5.13789 17.8031 5.02773 15.975 4.95977C15.1055 4.92695 14.175 4.90586 13.2445 4.89414C12.9187 4.88945 12.6164 4.88711 12.3445 4.88477H11.6555C11.3836 4.88711 11.0813 4.88945 10.7555 4.89414C9.825 4.90586 8.89453 4.92695 8.025 4.95977C6.19687 5.03008 4.89609 5.14023 4.23516 5.31602C3.6825 5.46517 3.17876 5.75696 2.7744 6.16214C2.37004 6.56732 2.07928 7.07165 1.93125 7.62461C1.78828 8.1543 1.6875 8.85977 1.61719 9.70586C1.56562 10.3199 1.53281 10.9715 1.51406 11.6254C1.50703 11.8527 1.50469 12.066 1.50234 12.2559C1.50234 12.3238 1.5 12.3824 1.5 12.434V12.5652C1.5 12.6168 1.5 12.6754 1.50234 12.7434C1.50469 12.9332 1.50937 13.1465 1.51406 13.3738C1.53281 14.0277 1.56562 14.6793 1.61719 15.2934C1.6875 16.1395 1.79063 16.8449 1.93125 17.3746C2.23125 18.4973 3.1125 19.3832 4.23516 19.6832C4.89609 19.8613 6.19687 19.9715 8.025 20.0395C8.89453 20.0723 9.825 20.0934 10.7555 20.1051C11.0813 20.1098 11.3836 20.1121 11.6555 20.1145H12.3445C12.6164 20.1121 12.9187 20.1098 13.2445 20.1051C14.175 20.0934 15.1055 20.0723 15.975 20.0395C17.8031 19.9691 19.1039 19.859 19.7648 19.6832C20.8875 19.3832 21.7687 18.4996 22.0687 17.3746C22.2117 16.8449 22.3125 16.1395 22.3828 15.2934C22.4344 14.6793 22.4672 14.0277 22.4859 13.3738C22.493 13.1465 22.4953 12.9332 22.4977 12.7434C22.4977 12.6754 22.5 12.6168 22.5 12.5652V12.434ZM20.8125 12.5559C20.8125 12.6051 20.8125 12.659 20.8102 12.7223C20.8078 12.9051 20.8031 13.1066 20.7984 13.3246C20.782 13.948 20.7492 14.5715 20.7 15.1504C20.6367 15.9051 20.5477 16.5238 20.4375 16.9387C20.2922 17.4801 19.8656 17.909 19.3266 18.052C18.8344 18.1832 17.5945 18.2887 15.9094 18.352C15.0562 18.3848 14.1375 18.4059 13.2211 18.4176C12.9 18.4223 12.6023 18.4246 12.3352 18.4246H11.6648L10.7789 18.4176C9.8625 18.4059 8.94609 18.3848 8.09063 18.352C6.40547 18.2863 5.16328 18.1832 4.67344 18.052C4.13437 17.9066 3.70781 17.4801 3.5625 16.9387C3.45234 16.5238 3.36328 15.9051 3.3 15.1504C3.25078 14.5715 3.22031 13.948 3.20156 13.3246C3.19453 13.1066 3.19219 12.9027 3.18984 12.7223C3.18984 12.659 3.1875 12.6027 3.1875 12.5559V12.4434C3.1875 12.3941 3.1875 12.3402 3.18984 12.277C3.19219 12.0941 3.19688 11.8926 3.20156 11.6746C3.21797 11.0512 3.25078 10.4277 3.3 9.84883C3.36328 9.09414 3.45234 8.47539 3.5625 8.06055C3.70781 7.51914 4.13437 7.09023 4.67344 6.94727C5.16562 6.81602 6.40547 6.71055 8.09063 6.64727C8.94375 6.61445 9.8625 6.59336 10.7789 6.58164C11.1 6.57695 11.3977 6.57461 11.6648 6.57461H12.3352L13.2211 6.58164C14.1375 6.59336 15.0539 6.61445 15.9094 6.64727C17.5945 6.71289 18.8367 6.81602 19.3266 6.94727C19.8656 7.09258 20.2922 7.51914 20.4375 8.06055C20.5477 8.47539 20.6367 9.09414 20.7 9.84883C20.7492 10.4277 20.7797 11.0512 20.7984 11.6746C20.8055 11.8926 20.8078 12.0965 20.8102 12.277C20.8102 12.3402 20.8125 12.3965 20.8125 12.4434V12.5559ZM9.91406 15.6402L15.3516 12.4762L9.91406 9.35898V15.6402Z" fill="#343239"/>
</svg>
