<svg width="62" height="82" viewBox="0 0 62 82" fill="none" xmlns="http://www.w3.org/2000/svg">
<g clip-path="url(#clip0_505_44273)">
<path d="M55.35 0H6.15C2.75345 0 0 2.59148 0 5.78824V76.2118C0 79.4086 2.75345 82 6.15 82H55.35C58.7466 82 61.5 79.4086 61.5 76.2118V5.78824C61.5 2.59148 58.7466 0 55.35 0Z" fill="url(#paint0_linear_505_44273)"/>
<path d="M49.607 57.2195H50.0906C50.1925 57.2195 50.3006 57.2161 50.415 57.2092C50.5294 57.2024 50.6391 57.1886 50.7441 57.1681C50.8492 57.1475 50.9443 57.1192 51.0296 57.083C51.1148 57.0467 51.1783 57.0003 51.2199 56.9435C51.2511 56.9004 51.2672 56.8427 51.2682 56.7703C51.2693 56.6978 51.2589 56.6186 51.237 56.5324C51.2152 56.4463 51.1861 56.3558 51.1497 56.2609C51.1133 56.1659 51.0743 56.0739 51.0327 55.9849C50.9911 55.8958 50.95 55.8116 50.9095 55.7324C50.8689 55.6531 50.8351 55.5861 50.8081 55.5312L51.5349 55.1936C51.5911 55.2876 51.6467 55.4006 51.7018 55.5327C51.7569 55.6648 51.8053 55.8014 51.8469 55.9423C51.8885 56.0832 51.9223 56.2222 51.9483 56.3592C51.9743 56.4962 51.9873 56.6176 51.9873 56.7233C51.9873 56.9132 51.953 57.0825 51.8843 57.2312C51.8053 57.4035 51.694 57.5449 51.5505 57.6555C51.407 57.7661 51.2365 57.8488 51.0389 57.9036C50.9786 57.9192 50.9032 57.9315 50.8128 57.9403C50.7223 57.9491 50.6303 57.9559 50.5367 57.9608C50.4431 57.9657 50.3542 57.9687 50.2699 57.9696C50.1857 57.9706 50.1207 57.9711 50.075 57.9711H49.5946C49.5881 57.9711 49.5817 57.971 49.5754 57.9707C49.5596 57.9705 49.5421 57.9701 49.5228 57.9696C49.4833 57.9687 49.4401 57.9643 49.3933 57.9564C49.3466 57.9486 49.2961 57.9364 49.2421 57.9197C49.188 57.9031 49.1349 57.8791 49.083 57.8478C49.0559 58.0944 48.9764 58.3308 48.8443 58.5569C48.7122 58.7829 48.5454 58.9948 48.3436 59.1925C48.1419 59.3902 47.9157 59.5713 47.6651 59.7357C47.4145 59.9001 47.1571 60.044 46.893 60.1673L46.5436 59.4891C46.6892 59.4186 46.8353 59.3423 46.9819 59.26C47.1285 59.1778 47.2684 59.0902 47.4015 58.9973C47.5346 58.9043 47.6589 58.8059 47.7743 58.7022C47.8897 58.5984 47.9895 58.4913 48.0738 58.3807C48.158 58.2701 48.2246 58.1561 48.2734 58.0386C48.3223 57.9212 48.3467 57.8008 48.3467 57.6775C48.3467 57.6618 48.3462 57.6457 48.3452 57.6291C48.3441 57.6124 48.3426 57.5963 48.3405 57.5806V57.5836C48.3259 57.4739 48.3015 57.3629 48.2672 57.2503C48.2329 57.1378 48.196 57.0286 48.1564 56.9229C48.1169 56.8172 48.0774 56.7159 48.0379 56.6191C47.9984 56.5222 47.9651 56.4346 47.9381 56.3563L48.6868 56.0627C48.7679 56.2917 48.8443 56.4811 48.9161 56.6308C48.9878 56.7805 49.0601 56.899 49.1329 56.9861C49.2057 57.0732 49.28 57.1338 49.3559 57.1681C49.4318 57.2024 49.5155 57.2195 49.607 57.2195ZM50.1623 59.4362L49.632 58.9341L50.1686 58.4321L50.6989 58.9312L50.1623 59.4362ZM51.3415 59.4303L50.8112 58.9312L51.3478 58.4262L51.8781 58.9283L51.3415 59.4303ZM50.7582 59.3188L51.2448 59.7768L50.755 60.2378L50.2684 59.7797L50.7582 59.3188ZM44.0667 56.8172C44.1457 56.8642 44.2409 56.9122 44.3521 56.9611C44.4634 57.01 44.5788 57.0546 44.6984 57.0947C44.818 57.1348 44.9355 57.1671 45.0509 57.1916C45.1663 57.2161 45.2677 57.2283 45.3551 57.2283C45.4071 57.2283 45.4773 57.2258 45.5656 57.2209C45.654 57.2161 45.7409 57.2024 45.8261 57.1798C45.9114 57.1573 45.9852 57.1221 46.0476 57.0741C46.11 57.0262 46.1422 56.9582 46.1443 56.8701C46.1464 56.7898 46.1235 56.6993 46.0757 56.5985C46.0279 56.4977 45.9634 56.393 45.8823 56.2843C45.8012 56.1757 45.7076 56.0666 45.6015 55.957C45.4955 55.8474 45.3852 55.7422 45.2708 55.6413C45.1565 55.5405 45.0416 55.4476 44.9261 55.3624C44.8107 55.2773 44.7031 55.2053 44.6033 55.1466L45.0681 54.4978C45.2594 54.6211 45.4481 54.76 45.6343 54.9147C45.8204 55.0693 45.992 55.2342 46.149 55.4094C46.306 55.5846 46.4422 55.7671 46.5577 55.957C46.6731 56.1468 46.7558 56.3387 46.8057 56.5324C46.8597 56.7497 46.8608 56.9503 46.8088 57.1343C46.7568 57.3183 46.6632 57.4764 46.528 57.6085C46.3928 57.7406 46.2213 57.8419 46.0133 57.9124C45.8053 57.9829 45.5724 58.0122 45.3145 58.0005C45.1773 58.0005 45.0379 57.9877 44.8965 57.9623C44.7551 57.9369 44.6163 57.9031 44.48 57.861C44.3438 57.8189 44.2128 57.77 44.087 57.7142C43.9611 57.6584 43.8442 57.5992 43.736 57.5366L44.0667 56.8172ZM42.2667 53.5318L43.0684 53.2852C43.1724 54.027 43.2265 54.7209 43.2306 55.3668C43.2348 56.4062 43.2192 57.2332 43.1839 57.8478L42.3665 57.9652C42.4289 57.0609 42.4476 56.3034 42.4227 55.6927C42.3894 54.8941 42.3374 54.1738 42.2667 53.5318ZM37.004 57.2201C37.0122 57.2197 37.0205 57.2195 37.0289 57.2195H37.6466C37.9045 57.2195 38.1671 57.1965 38.4343 57.1505C38.7016 57.1045 38.9672 57.0438 39.2314 56.9684C39.4955 56.8931 39.7534 56.8065 40.005 56.7086C40.2567 56.6107 40.4948 56.5099 40.7194 56.4062C40.5405 56.369 40.3742 56.3196 40.2203 56.2579C40.0664 56.1963 39.9208 56.1361 39.7835 56.0774C39.6463 56.0186 39.5142 55.9677 39.3873 55.9247C39.2605 55.8816 39.1347 55.8601 39.0099 55.8601C38.9371 55.8601 38.869 55.8723 38.8055 55.8968C38.7421 55.9212 38.6834 55.9521 38.6293 55.9893C38.5752 56.0265 38.5269 56.0676 38.4842 56.1126C38.4416 56.1576 38.4042 56.2012 38.3719 56.2432C38.3397 56.2853 38.3132 56.323 38.2924 56.3563C38.2716 56.3896 38.257 56.413 38.2487 56.4267L37.5998 56.0304C37.6705 55.9129 37.7548 55.7989 37.8525 55.6883C37.9503 55.5777 38.0589 55.4789 38.1785 55.3918C38.2981 55.3047 38.4276 55.2352 38.5669 55.1833C38.7062 55.1315 38.8539 55.1055 39.0099 55.1055C39.17 55.1055 39.3291 55.1256 39.4872 55.1657C39.6452 55.2058 39.8017 55.2562 39.9567 55.3169C40.1116 55.3776 40.2671 55.4436 40.423 55.5151C40.579 55.5865 40.7366 55.6531 40.8957 55.7147C41.0548 55.7764 41.2154 55.8283 41.3776 55.8704C41.5398 55.9124 41.7062 55.9345 41.8768 55.9364L41.8112 56.6939C41.5201 56.8251 41.2164 56.964 40.9003 57.1108C40.5842 57.2577 40.2535 57.3937 39.9083 57.519C39.5631 57.6442 39.2023 57.749 38.8258 57.8331C38.4494 57.9173 38.0563 57.9633 37.6466 57.9711H37.0289C37.0205 57.9711 37.0122 57.9709 37.004 57.9705C36.9958 57.9709 36.9874 57.9711 36.979 57.9711H36.9541C36.7815 57.9711 36.6234 57.9574 36.4799 57.93C36.3364 57.9026 36.2054 57.8591 36.0868 57.7994C35.9683 57.7397 35.8628 57.6633 35.7702 57.5703C35.6777 57.4774 35.5971 57.3653 35.5284 57.2342C34.9565 57.7313 34.1007 57.9799 32.961 57.9799C32.3142 57.976 31.7772 57.8997 31.3498 57.7509C30.9224 57.6021 30.6078 57.3751 30.4061 57.0697C30.3271 56.9445 30.2704 56.8143 30.2361 56.6792C30.2018 56.5442 30.1846 56.4121 30.1846 56.2829C30.1846 56.1243 30.2054 55.9717 30.247 55.8248V55.8278C30.272 55.7319 30.298 55.6482 30.325 55.5768C30.352 55.5053 30.377 55.4451 30.3999 55.3962C30.4227 55.3472 30.4425 55.3091 30.4591 55.2817C30.4758 55.2543 30.4872 55.2357 30.4935 55.2259L31.0955 55.5812C31.0747 55.6164 31.0508 55.6546 31.0238 55.6957C30.9967 55.7368 30.9713 55.7847 30.9474 55.8395C30.9234 55.8943 30.9032 55.9589 30.8865 56.0333C30.8699 56.1077 30.8616 56.1948 30.8616 56.2946C30.8616 56.3631 30.8751 56.4331 30.9021 56.5045C30.9292 56.576 30.9635 56.643 31.0051 56.7057C31.0633 56.7977 31.1517 56.876 31.2702 56.9406C31.3888 57.0051 31.5328 57.058 31.7023 57.0991C31.8718 57.1402 32.0626 57.1705 32.2747 57.1901C32.4869 57.2097 32.7156 57.2195 32.961 57.2195C33.1836 57.2195 33.3947 57.2117 33.5943 57.196C33.794 57.1803 33.9796 57.1554 34.1511 57.1211C34.3227 57.0869 34.4777 57.0428 34.616 56.989C34.7543 56.9352 34.8744 56.8691 34.9763 56.7908C35.0678 56.7243 35.1416 56.6469 35.1978 56.5589C35.2539 56.4708 35.3007 56.3783 35.3381 56.2814C35.3756 56.1845 35.4068 56.0852 35.4317 55.9834C35.4567 55.8816 35.4837 55.7837 35.5128 55.6898L36.2303 55.8718C36.2033 55.9775 36.1747 56.0827 36.1446 56.1875C36.1144 56.2922 36.1004 56.4003 36.1024 56.5119V56.509C36.1087 56.6166 36.1284 56.7145 36.1617 56.8026C36.195 56.8906 36.2465 56.9655 36.3161 57.0272C36.3858 57.0888 36.4747 57.1363 36.5828 57.1696C36.691 57.2028 36.8231 57.2195 36.979 57.2195C36.9874 57.2195 36.9958 57.2197 37.004 57.2201ZM39.4747 54.1102L38.8789 54.671L38.2799 54.1073L38.8757 53.5465L39.4747 54.1102ZM33.1544 54.9939L32.6241 55.4931L32.0876 54.991L32.6179 54.4889L33.1544 54.9939ZM34.3336 54.9969L33.8033 55.4989L33.2668 54.9939L33.7971 54.4948L34.3336 54.9969ZM27.7344 53.5318L28.5362 53.2852C28.6401 54.027 28.6942 54.7209 28.6984 55.3668C28.7025 56.4062 28.6869 57.2332 28.6516 57.8478L27.8342 57.9652C27.8966 57.0609 27.9154 56.3034 27.8904 55.6927C27.8571 54.8941 27.8051 54.1738 27.7344 53.5318ZM25.6786 58.896L25.1483 59.3951L24.6117 58.893L25.1421 58.391L25.6786 58.896ZM26.8578 58.8989L26.3275 59.401L25.7909 58.896L26.3213 58.3968L26.8578 58.8989ZM24.6319 57.2195H24.8987C25.0006 57.2195 25.1088 57.2161 25.2232 57.2092C25.3376 57.2024 25.4473 57.1886 25.5523 57.1681C25.6573 57.1475 25.7525 57.1192 25.8377 57.083C25.923 57.0467 25.9864 57.0003 26.028 56.9435C26.0592 56.9004 26.0753 56.8427 26.0764 56.7703C26.0774 56.6978 26.067 56.6186 26.0452 56.5324C26.0233 56.4463 25.9942 56.3558 25.9578 56.2609C25.9214 56.1659 25.8824 56.0739 25.8408 55.9849C25.7993 55.8958 25.7582 55.8116 25.7176 55.7324C25.6771 55.6531 25.6433 55.5861 25.6162 55.5312L26.3431 55.1936C26.3992 55.2876 26.4549 55.4006 26.51 55.5327C26.5651 55.6648 26.6135 55.8014 26.6551 55.9423C26.6966 56.0832 26.7304 56.2222 26.7564 56.3592C26.7824 56.4962 26.7954 56.6176 26.7954 56.7233C26.7954 56.9132 26.7611 57.0825 26.6925 57.2312C26.6135 57.4035 26.5022 57.5449 26.3587 57.6555C26.2152 57.7661 26.0447 57.8488 25.8471 57.9036C25.7868 57.9192 25.7114 57.9315 25.6209 57.9403C25.5304 57.9491 25.4384 57.9559 25.3448 57.9608C25.2512 57.9657 25.1623 57.9687 25.0781 57.9696C24.9939 57.9706 24.9289 57.9711 24.8831 57.9711H24.4027C24.3486 57.9711 24.2983 57.962 24.2518 57.9438C24.0838 57.9099 23.9532 57.8447 23.8599 57.748L23.7944 57.6804L23.7289 57.745C23.575 57.8879 23.3795 57.9594 23.1424 57.9594C23.0176 57.9594 22.8741 57.9339 22.7119 57.883C22.5809 57.8439 22.4416 57.7891 22.2939 57.7186C22.1254 57.6384 21.9788 57.5581 21.854 57.4779C21.7958 57.5601 21.7064 57.6433 21.5858 57.7274C21.3424 57.8938 21.0669 57.977 20.7591 57.977C20.7334 57.977 20.7086 57.975 20.6847 57.9709C20.4584 57.9679 20.2513 57.9268 20.0634 57.8478C20.0655 58.0103 20.0509 58.1766 20.0197 58.3469C19.9885 58.5172 19.9376 58.6807 19.8669 58.8373C19.7962 58.9938 19.7052 59.1392 19.5939 59.2733C19.4826 59.4073 19.348 59.5194 19.1899 59.6094H19.193C19.0953 59.6721 18.9903 59.7259 18.878 59.7709C18.7657 59.8159 18.6466 59.8531 18.5208 59.8825C18.395 59.9118 18.2624 59.9348 18.123 59.9515C17.9837 59.9681 17.836 59.9804 17.6801 59.9882C17.3327 59.9882 17.0348 59.949 16.7863 59.8707C16.5378 59.7925 16.322 59.6799 16.139 59.5331C15.9185 59.3432 15.7542 59.1196 15.6461 58.8622C15.538 58.6048 15.4839 58.3332 15.4839 58.0474C15.4839 57.883 15.4953 57.7279 15.5182 57.5821C15.5411 57.4363 15.5754 57.2929 15.6211 57.1519C15.6669 57.011 15.7251 56.8672 15.7958 56.7203C15.8666 56.5735 15.9497 56.416 16.0454 56.2476L16.7005 56.6939C16.636 56.8035 16.5726 56.9234 16.5102 57.0536C16.4478 57.1838 16.3932 57.3188 16.3464 57.4588C16.2997 57.5987 16.2653 57.7392 16.2435 57.8801C16.2217 58.021 16.2201 58.1561 16.2388 58.2853C16.2471 58.3322 16.2622 58.3885 16.2841 58.4541C16.3059 58.5197 16.3381 58.5877 16.3808 58.6582C16.4234 58.7286 16.4775 58.7986 16.543 58.8681C16.6085 58.9376 16.688 58.9992 16.7816 59.0531C16.8752 59.1069 16.9849 59.1509 17.1107 59.1852C17.2366 59.2194 17.3816 59.2366 17.5459 59.2366H17.5989C17.6093 59.2366 17.6197 59.2356 17.6301 59.2336C17.8381 59.2238 18.0315 59.2043 18.2104 59.1749C18.3892 59.1455 18.5499 59.1 18.6924 59.0384C18.8348 58.9767 18.957 58.8965 19.0589 58.7976C19.1608 58.6988 19.2398 58.5759 19.296 58.4291C19.348 58.2921 19.3693 58.1468 19.3599 57.9931C19.3506 57.8395 19.3194 57.6795 19.2664 57.5131C19.2133 57.3467 19.1442 57.1745 19.0589 56.9963C18.9736 56.8182 18.8821 56.6372 18.7844 56.4532L19.4769 56.0392L19.7452 56.5236C19.8388 56.6978 19.9293 56.8319 20.0166 56.9259C20.104 57.0198 20.1882 57.0888 20.2693 57.1329C20.3504 57.1769 20.4279 57.2024 20.5017 57.2092C20.5755 57.2161 20.6457 57.2195 20.7123 57.2195C20.73 57.2195 20.7473 57.2205 20.7643 57.2224C21.0034 57.2209 21.2169 57.1152 21.4048 56.9053C21.4776 56.8231 21.5514 56.7204 21.6263 56.597C21.6721 56.5187 21.7313 56.4091 21.8041 56.2682L21.8821 56.1214C22.0069 55.8885 22.141 55.7123 22.2845 55.5929C22.453 55.452 22.6558 55.3815 22.8929 55.3815C23.1778 55.3815 23.4284 55.4706 23.6447 55.6487C23.8901 55.8523 24.0305 56.1312 24.0658 56.4855V56.5119L24.0689 56.5207V56.5266C24.071 56.5324 24.0721 56.5393 24.0721 56.5471V56.5618C24.0721 56.5677 24.0731 56.5745 24.0752 56.5824C24.0772 56.6039 24.0793 56.6264 24.0814 56.6499C24.0897 56.7262 24.1022 56.7957 24.1188 56.8583C24.1792 57.0932 24.3237 57.2117 24.5525 57.2136H24.5587C24.584 57.2136 24.6084 57.2156 24.6319 57.2195ZM23.2485 57.2606C23.4003 57.2195 23.4804 57.0991 23.4887 56.8994C23.497 56.7292 23.4617 56.5775 23.3826 56.4444C23.314 56.3289 23.2256 56.2388 23.1175 56.1742C23.0031 56.1077 22.8897 56.0852 22.7774 56.1067C22.7088 56.1204 22.609 56.2496 22.478 56.4943L22.3656 56.7057C22.3532 56.7311 22.3417 56.7546 22.3313 56.7761C22.3209 56.7938 22.3157 56.8035 22.3157 56.8055L22.2845 56.876C22.767 57.1363 23.0707 57.2665 23.1955 57.2665C23.2162 57.2665 23.2339 57.2645 23.2485 57.2606ZM18.3851 56.1977L17.7892 56.7585L17.1903 56.1948L17.7861 55.634L18.3851 56.1977ZM12.3686 57.2195H12.7529C12.8403 57.2195 12.9266 57.2161 13.0118 57.2092C13.0971 57.2024 13.1772 57.1882 13.2521 57.1666C13.3269 57.1451 13.393 57.1148 13.4501 57.0756C13.5073 57.0365 13.5515 56.9856 13.5827 56.9229C13.6056 56.8799 13.617 56.8153 13.617 56.7292C13.617 56.6783 13.6061 56.6068 13.5843 56.5148C13.5625 56.4228 13.5323 56.321 13.4938 56.2095C13.4553 56.0979 13.4106 55.9824 13.3597 55.863C13.3087 55.7436 13.2552 55.6321 13.199 55.5283L13.9196 55.1936C13.9716 55.3052 14.0236 55.4236 14.0756 55.5489C14.1276 55.6741 14.1739 55.8028 14.2144 55.935C14.255 56.0671 14.2878 56.1997 14.3127 56.3328C14.3377 56.4659 14.3501 56.5961 14.3501 56.7233C14.3501 56.9132 14.3158 57.0825 14.2472 57.2312C14.1682 57.4035 14.0569 57.5449 13.9134 57.6555C13.7699 57.7661 13.5994 57.8488 13.4018 57.9036C13.2833 57.9349 13.1683 57.954 13.0571 57.9608C12.9458 57.9677 12.8424 57.9711 12.7467 57.9711H12.2912C12.2851 57.9711 12.279 57.971 12.273 57.9708C12.0515 57.9674 11.86 57.9396 11.6985 57.8874C11.5259 57.8316 11.3772 57.747 11.2524 57.6335C11.1775 57.563 11.1198 57.4872 11.0793 57.4059C11.0387 57.3247 11.0091 57.2454 10.9904 57.1681C10.9717 57.0908 10.9607 57.0174 10.9576 56.9479C10.9545 56.8784 10.9529 56.8182 10.9529 56.7673C10.955 56.7047 10.9576 56.601 10.9607 56.4561C10.9639 56.3113 10.9654 56.1361 10.9654 55.9305C10.9654 55.8072 10.9649 55.6756 10.9639 55.5356C10.9628 55.3957 10.9613 55.2533 10.9592 55.1085C10.9571 54.9636 10.9535 54.8183 10.9483 54.6724C10.9431 54.5266 10.9358 54.3862 10.9264 54.2511C10.9171 54.1161 10.9056 53.9893 10.8921 53.8709C10.8786 53.7525 10.8625 53.6473 10.8438 53.5553L11.6268 53.3351C11.6496 53.4486 11.6694 53.5856 11.686 53.7461C11.7027 53.9066 11.7162 54.0774 11.7266 54.2585C11.737 54.4395 11.7453 54.6245 11.7515 54.8134C11.7578 55.0023 11.7609 55.1819 11.7609 55.3521C11.7609 55.403 11.7614 55.4569 11.7625 55.5136C11.7635 55.5704 11.7645 55.6267 11.7656 55.6825C11.7666 55.7382 11.7671 55.7926 11.7671 55.8454V55.9893C11.7671 56.0637 11.7666 56.1336 11.7656 56.1992C11.7645 56.2648 11.7635 56.3279 11.7625 56.3886C11.7614 56.4493 11.7604 56.509 11.7593 56.5677C11.7583 56.6264 11.7578 56.6861 11.7578 56.7468C11.7557 56.8212 11.7578 56.8911 11.764 56.9567C11.7703 57.0223 11.7911 57.0707 11.8264 57.102C11.9013 57.1764 12.0562 57.2146 12.2912 57.2165H12.3193C12.336 57.2165 12.3524 57.2175 12.3686 57.2195ZM13.8261 58.987L13.2302 59.5478L12.6313 58.9841L13.2271 58.4233L13.8261 58.987Z" fill="white"/>
<path d="M49.607 57.2195H50.0906C50.1925 57.2195 50.3006 57.2161 50.415 57.2092C50.5294 57.2024 50.6391 57.1886 50.7441 57.1681C50.8492 57.1475 50.9443 57.1192 51.0296 57.083C51.1148 57.0467 51.1783 57.0003 51.2199 56.9435C51.2511 56.9004 51.2672 56.8427 51.2682 56.7703C51.2693 56.6978 51.2589 56.6186 51.237 56.5324C51.2152 56.4463 51.1861 56.3558 51.1497 56.2609C51.1133 56.1659 51.0743 56.0739 51.0327 55.9849C50.9911 55.8958 50.95 55.8116 50.9095 55.7324C50.8689 55.6531 50.8351 55.5861 50.8081 55.5312L51.5349 55.1936C51.5911 55.2876 51.6467 55.4006 51.7018 55.5327C51.7569 55.6648 51.8053 55.8014 51.8469 55.9423C51.8885 56.0832 51.9223 56.2222 51.9483 56.3592C51.9743 56.4962 51.9873 56.6176 51.9873 56.7233C51.9873 56.9132 51.953 57.0825 51.8843 57.2312C51.8053 57.4035 51.694 57.5449 51.5505 57.6555C51.407 57.7661 51.2365 57.8488 51.0389 57.9036C50.9786 57.9192 50.9032 57.9315 50.8128 57.9403C50.7223 57.9491 50.6303 57.9559 50.5367 57.9608C50.4431 57.9657 50.3542 57.9687 50.2699 57.9696C50.1857 57.9706 50.1207 57.9711 50.075 57.9711H49.5946C49.5881 57.9711 49.5817 57.971 49.5754 57.9707C49.5596 57.9705 49.5421 57.9701 49.5228 57.9696C49.4833 57.9687 49.4401 57.9643 49.3933 57.9564C49.3466 57.9486 49.2961 57.9364 49.2421 57.9197C49.188 57.9031 49.1349 57.8791 49.083 57.8478C49.0559 58.0944 48.9764 58.3308 48.8443 58.5569C48.7122 58.7829 48.5454 58.9948 48.3436 59.1925C48.1419 59.3902 47.9157 59.5713 47.6651 59.7357C47.4145 59.9001 47.1571 60.044 46.893 60.1673L46.5436 59.4891C46.6892 59.4186 46.8353 59.3423 46.9819 59.26C47.1285 59.1778 47.2684 59.0902 47.4015 58.9973C47.5346 58.9043 47.6589 58.8059 47.7743 58.7022C47.8897 58.5984 47.9895 58.4913 48.0738 58.3807C48.158 58.2701 48.2246 58.1561 48.2734 58.0386C48.3223 57.9212 48.3467 57.8008 48.3467 57.6775C48.3467 57.6618 48.3462 57.6457 48.3452 57.6291C48.3441 57.6124 48.3426 57.5963 48.3405 57.5806V57.5836C48.3259 57.4739 48.3015 57.3629 48.2672 57.2503C48.2329 57.1378 48.196 57.0286 48.1564 56.9229C48.1169 56.8172 48.0774 56.7159 48.0379 56.6191C47.9984 56.5222 47.9651 56.4346 47.9381 56.3563L48.6868 56.0627C48.7679 56.2917 48.8443 56.4811 48.9161 56.6308C48.9878 56.7805 49.0601 56.899 49.1329 56.9861C49.2057 57.0732 49.28 57.1338 49.3559 57.1681C49.4318 57.2024 49.5155 57.2195 49.607 57.2195ZM50.1623 59.4362L49.632 58.9341L50.1686 58.4321L50.6989 58.9312L50.1623 59.4362ZM51.3415 59.4303L50.8112 58.9312L51.3478 58.4262L51.8781 58.9283L51.3415 59.4303ZM50.7582 59.3188L51.2448 59.7768L50.755 60.2378L50.2684 59.7797L50.7582 59.3188ZM44.0667 56.8172C44.1457 56.8642 44.2409 56.9122 44.3521 56.9611C44.4634 57.01 44.5788 57.0546 44.6984 57.0947C44.818 57.1348 44.9355 57.1671 45.0509 57.1916C45.1663 57.2161 45.2677 57.2283 45.3551 57.2283C45.4071 57.2283 45.4773 57.2258 45.5656 57.2209C45.654 57.2161 45.7409 57.2024 45.8261 57.1798C45.9114 57.1573 45.9852 57.1221 46.0476 57.0741C46.11 57.0262 46.1422 56.9582 46.1443 56.8701C46.1464 56.7898 46.1235 56.6993 46.0757 56.5985C46.0279 56.4977 45.9634 56.393 45.8823 56.2843C45.8012 56.1757 45.7076 56.0666 45.6015 55.957C45.4955 55.8474 45.3852 55.7422 45.2708 55.6413C45.1565 55.5405 45.0416 55.4476 44.9261 55.3624C44.8107 55.2773 44.7031 55.2053 44.6033 55.1466L45.0681 54.4978C45.2594 54.6211 45.4481 54.76 45.6343 54.9147C45.8204 55.0693 45.992 55.2342 46.149 55.4094C46.306 55.5846 46.4422 55.7671 46.5577 55.957C46.6731 56.1468 46.7558 56.3387 46.8057 56.5324C46.8597 56.7497 46.8608 56.9503 46.8088 57.1343C46.7568 57.3183 46.6632 57.4764 46.528 57.6085C46.3928 57.7406 46.2213 57.8419 46.0133 57.9124C45.8053 57.9829 45.5724 58.0122 45.3145 58.0005C45.1773 58.0005 45.0379 57.9877 44.8965 57.9623C44.7551 57.9369 44.6163 57.9031 44.48 57.861C44.3438 57.8189 44.2128 57.77 44.087 57.7142C43.9611 57.6584 43.8442 57.5992 43.736 57.5366L44.0667 56.8172ZM42.2667 53.5318L43.0684 53.2852C43.1724 54.027 43.2265 54.7209 43.2306 55.3668C43.2348 56.4062 43.2192 57.2332 43.1839 57.8478L42.3665 57.9652C42.4289 57.0609 42.4476 56.3034 42.4227 55.6927C42.3894 54.8941 42.3374 54.1738 42.2667 53.5318ZM37.004 57.2201C37.0122 57.2197 37.0205 57.2195 37.0289 57.2195H37.6466C37.9045 57.2195 38.1671 57.1965 38.4343 57.1505C38.7016 57.1045 38.9672 57.0438 39.2314 56.9684C39.4955 56.8931 39.7534 56.8065 40.005 56.7086C40.2567 56.6107 40.4948 56.5099 40.7194 56.4062C40.5405 56.369 40.3742 56.3196 40.2203 56.2579C40.0664 56.1963 39.9208 56.1361 39.7835 56.0774C39.6463 56.0186 39.5142 55.9677 39.3873 55.9247C39.2605 55.8816 39.1347 55.8601 39.0099 55.8601C38.9371 55.8601 38.869 55.8723 38.8055 55.8968C38.7421 55.9212 38.6834 55.9521 38.6293 55.9893C38.5752 56.0265 38.5269 56.0676 38.4842 56.1126C38.4416 56.1576 38.4042 56.2012 38.3719 56.2432C38.3397 56.2853 38.3132 56.323 38.2924 56.3563C38.2716 56.3896 38.257 56.413 38.2487 56.4267L37.5998 56.0304C37.6705 55.9129 37.7548 55.7989 37.8525 55.6883C37.9503 55.5777 38.0589 55.4789 38.1785 55.3918C38.2981 55.3047 38.4276 55.2352 38.5669 55.1833C38.7062 55.1315 38.8539 55.1055 39.0099 55.1055C39.17 55.1055 39.3291 55.1256 39.4872 55.1657C39.6452 55.2058 39.8017 55.2562 39.9567 55.3169C40.1116 55.3776 40.2671 55.4436 40.423 55.5151C40.579 55.5865 40.7366 55.6531 40.8957 55.7147C41.0548 55.7764 41.2154 55.8283 41.3776 55.8704C41.5398 55.9124 41.7062 55.9345 41.8768 55.9364L41.8112 56.6939C41.5201 56.8251 41.2164 56.964 40.9003 57.1108C40.5842 57.2577 40.2535 57.3937 39.9083 57.519C39.5631 57.6442 39.2023 57.749 38.8258 57.8331C38.4494 57.9173 38.0563 57.9633 37.6466 57.9711H37.0289C37.0205 57.9711 37.0122 57.9709 37.004 57.9705C36.9958 57.9709 36.9874 57.9711 36.979 57.9711H36.9541C36.7815 57.9711 36.6234 57.9574 36.4799 57.93C36.3364 57.9026 36.2054 57.8591 36.0868 57.7994C35.9683 57.7397 35.8628 57.6633 35.7702 57.5703C35.6777 57.4774 35.5971 57.3653 35.5284 57.2342C34.9565 57.7313 34.1007 57.9799 32.961 57.9799C32.3142 57.976 31.7772 57.8997 31.3498 57.7509C30.9224 57.6021 30.6078 57.3751 30.4061 57.0697C30.3271 56.9445 30.2704 56.8143 30.2361 56.6792C30.2018 56.5442 30.1846 56.4121 30.1846 56.2829C30.1846 56.1243 30.2054 55.9717 30.247 55.8248V55.8278C30.272 55.7319 30.298 55.6482 30.325 55.5768C30.352 55.5053 30.377 55.4451 30.3999 55.3962C30.4227 55.3472 30.4425 55.3091 30.4591 55.2817C30.4758 55.2543 30.4872 55.2357 30.4935 55.2259L31.0955 55.5812C31.0747 55.6164 31.0508 55.6546 31.0238 55.6957C30.9967 55.7368 30.9713 55.7847 30.9474 55.8395C30.9234 55.8943 30.9032 55.9589 30.8865 56.0333C30.8699 56.1077 30.8616 56.1948 30.8616 56.2946C30.8616 56.3631 30.8751 56.4331 30.9021 56.5045C30.9292 56.576 30.9635 56.643 31.0051 56.7057C31.0633 56.7977 31.1517 56.876 31.2702 56.9406C31.3888 57.0051 31.5328 57.058 31.7023 57.0991C31.8718 57.1402 32.0626 57.1705 32.2747 57.1901C32.4869 57.2097 32.7156 57.2195 32.961 57.2195C33.1836 57.2195 33.3947 57.2117 33.5943 57.196C33.794 57.1803 33.9796 57.1554 34.1511 57.1211C34.3227 57.0869 34.4777 57.0428 34.616 56.989C34.7543 56.9352 34.8744 56.8691 34.9763 56.7908C35.0678 56.7243 35.1416 56.6469 35.1978 56.5589C35.2539 56.4708 35.3007 56.3783 35.3381 56.2814C35.3756 56.1845 35.4068 56.0852 35.4317 55.9834C35.4567 55.8816 35.4837 55.7837 35.5128 55.6898L36.2303 55.8718C36.2033 55.9775 36.1747 56.0827 36.1446 56.1875C36.1144 56.2922 36.1004 56.4003 36.1024 56.5119V56.509C36.1087 56.6166 36.1284 56.7145 36.1617 56.8026C36.195 56.8906 36.2465 56.9655 36.3161 57.0272C36.3858 57.0888 36.4747 57.1363 36.5828 57.1696C36.691 57.2028 36.8231 57.2195 36.979 57.2195C36.9874 57.2195 36.9958 57.2197 37.004 57.2201ZM39.4747 54.1102L38.8789 54.671L38.2799 54.1073L38.8757 53.5465L39.4747 54.1102ZM33.1544 54.9939L32.6241 55.4931L32.0876 54.991L32.6179 54.4889L33.1544 54.9939ZM34.3336 54.9969L33.8033 55.4989L33.2668 54.9939L33.7971 54.4948L34.3336 54.9969ZM27.7344 53.5318L28.5362 53.2852C28.6401 54.027 28.6942 54.7209 28.6984 55.3668C28.7025 56.4062 28.6869 57.2332 28.6516 57.8478L27.8342 57.9652C27.8966 57.0609 27.9154 56.3034 27.8904 55.6927C27.8571 54.8941 27.8051 54.1738 27.7344 53.5318ZM25.6786 58.896L25.1483 59.3951L24.6117 58.893L25.1421 58.391L25.6786 58.896ZM26.8578 58.8989L26.3275 59.401L25.7909 58.896L26.3213 58.3968L26.8578 58.8989ZM24.6319 57.2195H24.8987C25.0006 57.2195 25.1088 57.2161 25.2232 57.2092C25.3376 57.2024 25.4473 57.1886 25.5523 57.1681C25.6573 57.1475 25.7525 57.1192 25.8377 57.083C25.923 57.0467 25.9864 57.0003 26.028 56.9435C26.0592 56.9004 26.0753 56.8427 26.0764 56.7703C26.0774 56.6978 26.067 56.6186 26.0452 56.5324C26.0233 56.4463 25.9942 56.3558 25.9578 56.2609C25.9214 56.1659 25.8824 56.0739 25.8408 55.9849C25.7993 55.8958 25.7582 55.8116 25.7176 55.7324C25.6771 55.6531 25.6433 55.5861 25.6162 55.5312L26.3431 55.1936C26.3992 55.2876 26.4549 55.4006 26.51 55.5327C26.5651 55.6648 26.6135 55.8014 26.6551 55.9423C26.6966 56.0832 26.7304 56.2222 26.7564 56.3592C26.7824 56.4962 26.7954 56.6176 26.7954 56.7233C26.7954 56.9132 26.7611 57.0825 26.6925 57.2312C26.6135 57.4035 26.5022 57.5449 26.3587 57.6555C26.2152 57.7661 26.0447 57.8488 25.8471 57.9036C25.7868 57.9192 25.7114 57.9315 25.6209 57.9403C25.5304 57.9491 25.4384 57.9559 25.3448 57.9608C25.2512 57.9657 25.1623 57.9687 25.0781 57.9696C24.9939 57.9706 24.9289 57.9711 24.8831 57.9711H24.4027C24.3486 57.9711 24.2983 57.962 24.2518 57.9438C24.0838 57.9099 23.9532 57.8447 23.8599 57.748L23.7944 57.6804L23.7289 57.745C23.575 57.8879 23.3795 57.9594 23.1424 57.9594C23.0176 57.9594 22.8741 57.9339 22.7119 57.883C22.5809 57.8439 22.4416 57.7891 22.2939 57.7186C22.1254 57.6384 21.9788 57.5581 21.854 57.4779C21.7958 57.5601 21.7064 57.6433 21.5858 57.7274C21.3424 57.8938 21.0669 57.977 20.7591 57.977C20.7334 57.977 20.7086 57.975 20.6847 57.9709C20.4584 57.9679 20.2513 57.9268 20.0634 57.8478C20.0655 58.0103 20.0509 58.1766 20.0197 58.3469C19.9885 58.5172 19.9376 58.6807 19.8669 58.8373C19.7962 58.9938 19.7052 59.1392 19.5939 59.2733C19.4826 59.4073 19.348 59.5194 19.1899 59.6094H19.193C19.0953 59.6721 18.9903 59.7259 18.878 59.7709C18.7657 59.8159 18.6466 59.8531 18.5208 59.8825C18.395 59.9118 18.2624 59.9348 18.123 59.9515C17.9837 59.9681 17.836 59.9804 17.6801 59.9882C17.3327 59.9882 17.0348 59.949 16.7863 59.8707C16.5378 59.7925 16.322 59.6799 16.139 59.5331C15.9185 59.3432 15.7542 59.1196 15.6461 58.8622C15.538 58.6048 15.4839 58.3332 15.4839 58.0474C15.4839 57.883 15.4953 57.7279 15.5182 57.5821C15.5411 57.4363 15.5754 57.2929 15.6211 57.1519C15.6669 57.011 15.7251 56.8672 15.7958 56.7203C15.8666 56.5735 15.9497 56.416 16.0454 56.2476L16.7005 56.6939C16.636 56.8035 16.5726 56.9234 16.5102 57.0536C16.4478 57.1838 16.3932 57.3188 16.3464 57.4588C16.2997 57.5987 16.2653 57.7392 16.2435 57.8801C16.2217 58.021 16.2201 58.1561 16.2388 58.2853C16.2471 58.3322 16.2622 58.3885 16.2841 58.4541C16.3059 58.5197 16.3381 58.5877 16.3808 58.6582C16.4234 58.7286 16.4775 58.7986 16.543 58.8681C16.6085 58.9376 16.688 58.9992 16.7816 59.0531C16.8752 59.1069 16.9849 59.1509 17.1107 59.1852C17.2366 59.2194 17.3816 59.2366 17.5459 59.2366H17.5989C17.6093 59.2366 17.6197 59.2356 17.6301 59.2336C17.8381 59.2238 18.0315 59.2043 18.2104 59.1749C18.3892 59.1455 18.5499 59.1 18.6924 59.0384C18.8348 58.9767 18.957 58.8965 19.0589 58.7976C19.1608 58.6988 19.2398 58.5759 19.296 58.4291C19.348 58.2921 19.3693 58.1468 19.3599 57.9931C19.3506 57.8395 19.3194 57.6795 19.2664 57.5131C19.2133 57.3467 19.1442 57.1745 19.0589 56.9963C18.9736 56.8182 18.8821 56.6372 18.7844 56.4532L19.4769 56.0392L19.7452 56.5236C19.8388 56.6978 19.9293 56.8319 20.0166 56.9259C20.104 57.0198 20.1882 57.0888 20.2693 57.1329C20.3504 57.1769 20.4279 57.2024 20.5017 57.2092C20.5755 57.2161 20.6457 57.2195 20.7123 57.2195C20.73 57.2195 20.7473 57.2205 20.7643 57.2224C21.0034 57.2209 21.2169 57.1152 21.4048 56.9053C21.4776 56.8231 21.5514 56.7204 21.6263 56.597C21.6721 56.5187 21.7313 56.4091 21.8041 56.2682L21.8821 56.1214C22.0069 55.8885 22.141 55.7123 22.2845 55.5929C22.453 55.452 22.6558 55.3815 22.8929 55.3815C23.1778 55.3815 23.4284 55.4706 23.6447 55.6487C23.8901 55.8523 24.0305 56.1312 24.0658 56.4855V56.5119L24.0689 56.5207V56.5266C24.071 56.5324 24.0721 56.5393 24.0721 56.5471V56.5618C24.0721 56.5677 24.0731 56.5745 24.0752 56.5824C24.0772 56.6039 24.0793 56.6264 24.0814 56.6499C24.0897 56.7262 24.1022 56.7957 24.1188 56.8583C24.1792 57.0932 24.3237 57.2117 24.5525 57.2136H24.5587C24.584 57.2136 24.6084 57.2156 24.6319 57.2195ZM23.2485 57.2606C23.4003 57.2195 23.4804 57.0991 23.4887 56.8994C23.497 56.7292 23.4617 56.5775 23.3826 56.4444C23.314 56.3289 23.2256 56.2388 23.1175 56.1742C23.0031 56.1077 22.8897 56.0852 22.7774 56.1067C22.7088 56.1204 22.609 56.2496 22.478 56.4943L22.3656 56.7057C22.3532 56.7311 22.3417 56.7546 22.3313 56.7761C22.3209 56.7938 22.3157 56.8035 22.3157 56.8055L22.2845 56.876C22.767 57.1363 23.0707 57.2665 23.1955 57.2665C23.2162 57.2665 23.2339 57.2645 23.2485 57.2606ZM18.3851 56.1977L17.7892 56.7585L17.1903 56.1948L17.7861 55.634L18.3851 56.1977ZM12.3686 57.2195H12.7529C12.8403 57.2195 12.9266 57.2161 13.0118 57.2092C13.0971 57.2024 13.1772 57.1882 13.2521 57.1666C13.3269 57.1451 13.393 57.1148 13.4501 57.0756C13.5073 57.0365 13.5515 56.9856 13.5827 56.9229C13.6056 56.8799 13.617 56.8153 13.617 56.7292C13.617 56.6783 13.6061 56.6068 13.5843 56.5148C13.5625 56.4228 13.5323 56.321 13.4938 56.2095C13.4553 56.0979 13.4106 55.9824 13.3597 55.863C13.3087 55.7436 13.2552 55.6321 13.199 55.5283L13.9196 55.1936C13.9716 55.3052 14.0236 55.4236 14.0756 55.5489C14.1276 55.6741 14.1739 55.8028 14.2144 55.935C14.255 56.0671 14.2878 56.1997 14.3127 56.3328C14.3377 56.4659 14.3501 56.5961 14.3501 56.7233C14.3501 56.9132 14.3158 57.0825 14.2472 57.2312C14.1682 57.4035 14.0569 57.5449 13.9134 57.6555C13.7699 57.7661 13.5994 57.8488 13.4018 57.9036C13.2833 57.9349 13.1683 57.954 13.0571 57.9608C12.9458 57.9677 12.8424 57.9711 12.7467 57.9711H12.2912C12.2851 57.9711 12.279 57.971 12.273 57.9708C12.0515 57.9674 11.86 57.9396 11.6985 57.8874C11.5259 57.8316 11.3772 57.747 11.2524 57.6335C11.1775 57.563 11.1198 57.4872 11.0793 57.4059C11.0387 57.3247 11.0091 57.2454 10.9904 57.1681C10.9717 57.0908 10.9607 57.0174 10.9576 56.9479C10.9545 56.8784 10.9529 56.8182 10.9529 56.7673C10.955 56.7047 10.9576 56.601 10.9607 56.4561C10.9639 56.3113 10.9654 56.1361 10.9654 55.9305C10.9654 55.8072 10.9649 55.6756 10.9639 55.5356C10.9628 55.3957 10.9613 55.2533 10.9592 55.1085C10.9571 54.9636 10.9535 54.8183 10.9483 54.6724C10.9431 54.5266 10.9358 54.3862 10.9264 54.2511C10.9171 54.1161 10.9056 53.9893 10.8921 53.8709C10.8786 53.7525 10.8625 53.6473 10.8438 53.5553L11.6268 53.3351C11.6496 53.4486 11.6694 53.5856 11.686 53.7461C11.7027 53.9066 11.7162 54.0774 11.7266 54.2585C11.737 54.4395 11.7453 54.6245 11.7515 54.8134C11.7578 55.0023 11.7609 55.1819 11.7609 55.3521C11.7609 55.403 11.7614 55.4569 11.7625 55.5136C11.7635 55.5704 11.7645 55.6267 11.7656 55.6825C11.7666 55.7382 11.7671 55.7926 11.7671 55.8454V55.9893C11.7671 56.0637 11.7666 56.1336 11.7656 56.1992C11.7645 56.2648 11.7635 56.3279 11.7625 56.3886C11.7614 56.4493 11.7604 56.509 11.7593 56.5677C11.7583 56.6264 11.7578 56.6861 11.7578 56.7468C11.7557 56.8212 11.7578 56.8911 11.764 56.9567C11.7703 57.0223 11.7911 57.0707 11.8264 57.102C11.9013 57.1764 12.0562 57.2146 12.2912 57.2165H12.3193C12.336 57.2165 12.3524 57.2175 12.3686 57.2195ZM13.8261 58.987L13.2302 59.5478L12.6313 58.9841L13.2271 58.4233L13.8261 58.987Z" fill="#222852"/>
<path fill-rule="evenodd" clip-rule="evenodd" d="M50.3059 66.7475C50.8274 66.7475 51.25 67.1464 51.25 67.6382V72.4274C51.25 72.9192 50.8274 73.3181 50.3059 73.3181C49.7845 73.3181 49.3618 72.9192 49.3618 72.4274V67.6382C49.3618 67.1464 49.7845 66.7475 50.3059 66.7475ZM18.3205 62.6214C18.363 65.941 18.3842 67.6018 18.3842 67.6018V69.442C18.3842 71.5778 16.5598 73.3156 14.3173 73.3156C12.0744 73.3156 10.25 71.5778 10.25 69.442V67.706C10.25 67.2142 10.6724 66.8153 11.1941 66.8153C11.7155 66.8153 12.1382 67.2142 12.1382 67.706V69.442C12.1382 70.5956 13.1156 71.5345 14.3173 71.5345C15.5183 71.5345 16.496 70.5956 16.496 69.442V67.6487L16.4323 62.6428C16.426 62.1511 16.8435 61.7476 17.3767 61.7416C17.8929 61.7416 18.3144 62.1332 18.3205 62.6214ZM37.4585 66.7475H41.5515C42.073 66.7475 42.4956 67.1464 42.4956 67.6382C42.4956 68.1297 42.073 68.5286 41.5515 68.5286H37.4585V69.2915C37.4585 71.5102 35.5445 73.3154 33.192 73.3154C30.8395 73.3154 28.9255 71.5102 28.9255 69.2915V67.7058C28.9255 67.214 29.3478 66.8154 29.8696 66.8154C30.391 66.8154 30.8137 67.214 30.8137 67.7058V69.2915C30.8137 70.5282 31.8806 71.5343 33.192 71.5343C34.5033 71.5343 35.5703 70.5282 35.5703 69.2915V66.344C35.5703 65.8522 35.993 65.4536 36.5144 65.4536C37.0361 65.4536 37.4585 65.8522 37.4585 66.344V66.7475ZM21.9813 66.7475H25.4047C25.9261 66.7475 26.3488 67.1464 26.3488 67.6382C26.3488 68.1297 25.9261 68.5286 25.4047 68.5286H21.0481C20.9835 68.5286 20.92 68.5224 20.8589 68.5107C20.8422 68.5075 20.8273 68.5007 20.8109 68.4967C20.7673 68.4858 20.7234 68.4753 20.6823 68.459C20.6622 68.4512 20.6444 68.4392 20.6249 68.4298C20.5901 68.4132 20.5545 68.3978 20.5224 68.3775C20.5034 68.3656 20.4873 68.3499 20.4695 68.3369C20.44 68.3149 20.4095 68.2941 20.3828 68.2694C20.3667 68.2543 20.3544 68.2367 20.3397 68.2207C20.3151 68.1939 20.2889 68.1679 20.2677 68.1381C20.2548 68.1202 20.2459 68.1002 20.2344 68.0815C20.2154 68.0506 20.1953 68.0208 20.1804 67.9878C20.1706 67.9661 20.1652 67.9426 20.1574 67.9201C20.1456 67.8876 20.1324 67.8559 20.125 67.8218C20.1192 67.7966 20.1189 67.7698 20.1155 67.7441C20.1118 67.7124 20.1046 67.6815 20.1043 67.6488L20.0408 62.6429C20.0345 62.1511 20.452 61.7476 20.9852 61.7417C21.5015 61.7417 21.9227 62.1333 21.929 62.6215L21.9813 66.7475ZM46.1248 66.7475C46.6463 66.7475 47.0689 67.1464 47.0689 67.6382V72.4274C47.0689 72.9192 46.6463 73.3181 46.1248 73.3181C45.6034 73.3181 45.1807 72.9192 45.1807 72.4274V67.6382C45.1807 67.1464 45.6034 66.7475 46.1248 66.7475ZM33.1912 68.4747C32.9586 68.4747 32.7289 68.3853 32.5652 68.231C32.3987 68.0739 32.3039 67.8573 32.3039 67.6379C32.3039 67.4185 32.3987 67.2019 32.5652 67.0475C32.8926 66.7361 33.4898 66.7334 33.82 67.0475C33.9837 67.2019 34.0784 67.4185 34.0784 67.6379C34.0784 67.8573 33.9837 68.0739 33.82 68.231C33.6535 68.3853 33.4266 68.4747 33.1912 68.4747ZM50.3043 65.6773C50.0717 65.6773 49.8423 65.5879 49.6783 65.4335C49.5146 65.2765 49.417 65.0598 49.417 64.8405C49.417 64.6211 49.5146 64.4045 49.6783 64.2501C49.885 64.0551 50.1923 63.9658 50.4794 64.0199C50.5371 64.0308 50.5914 64.047 50.6459 64.0687C50.6976 64.0904 50.7496 64.1147 50.7984 64.1445C50.8472 64.177 50.8932 64.2122 50.9331 64.2501C51.097 64.4045 51.1918 64.6211 51.1918 64.8405C51.1918 65.0625 51.097 65.2765 50.9331 65.4335C50.8932 65.4715 50.8472 65.5067 50.7984 65.5364C50.7496 65.5662 50.6976 65.5933 50.6459 65.615C50.5914 65.6339 50.5342 65.6502 50.4794 65.661C50.422 65.6719 50.3617 65.6773 50.3043 65.6773ZM24.1472 72.0683C24.1702 72.1198 24.1845 72.1712 24.196 72.2254C24.2075 72.2795 24.2161 72.3337 24.2161 72.3879C24.2161 72.442 24.2075 72.4989 24.196 72.553C24.1845 72.6045 24.1702 72.6587 24.1472 72.7074C24.1242 72.7589 24.0984 72.8076 24.0671 72.8536C24.0326 72.8997 23.9953 72.9403 23.9548 72.9809C23.9146 73.0188 23.8687 73.054 23.8199 73.0838C23.771 73.1136 23.7196 73.1407 23.6677 73.1624C23.6134 73.1813 23.5586 73.1976 23.5011 73.2084C23.4437 73.2192 23.3866 73.2246 23.3289 73.2246C23.2714 73.2246 23.2111 73.2192 23.1537 73.2084C23.0994 73.1976 23.0417 73.1813 22.9903 73.1624C22.9355 73.1407 22.8841 73.1136 22.8353 73.0838C22.7865 73.054 22.7405 73.0188 22.7 72.9809C22.6598 72.9403 22.6225 72.8997 22.5909 72.8536C22.5596 72.8076 22.5306 72.7589 22.5077 72.7074C22.4878 72.6587 22.4703 72.6045 22.4588 72.553C22.4474 72.4989 22.4419 72.442 22.4419 72.3879C22.4419 72.3337 22.4474 72.2795 22.4588 72.2254C22.4703 72.1712 22.4878 72.1198 22.5077 72.0683C22.5306 72.0196 22.5596 71.9708 22.5909 71.9248C22.6225 71.8787 22.6598 71.8354 22.7 71.7975C22.7405 71.7596 22.7865 71.7244 22.8353 71.6919C22.8841 71.6621 22.9355 71.6377 22.9872 71.6161C23.0417 71.5944 23.0994 71.5781 23.1537 71.5673C23.2686 71.5456 23.3866 71.5456 23.5011 71.5673C23.5586 71.5781 23.6134 71.5944 23.6677 71.6161C23.7196 71.6377 23.771 71.6621 23.8199 71.6919C23.8687 71.7244 23.9146 71.7596 23.9548 71.7975C23.9953 71.8354 24.0326 71.8787 24.0671 71.9248C24.0984 71.9708 24.1242 72.0196 24.1472 72.0683ZM39.3734 70.0018H41.9125C42.3208 70.0018 42.6516 70.3141 42.6516 70.6991C42.6516 71.0842 42.3208 71.3962 41.9125 71.3962H39.3734C38.9651 71.3962 38.6343 71.0842 38.6343 70.6991C38.6343 70.3141 38.9651 70.0018 39.3734 70.0018ZM24.5978 69.7227C25.0061 69.7227 25.3369 70.0349 25.3369 70.42C25.3369 70.8051 25.0061 71.1171 24.5978 71.1171H22.0587C21.6504 71.1171 21.3196 70.8051 21.3196 70.42C21.3196 70.0349 21.6504 69.7227 22.0587 69.7227H24.5978ZM11.3509 9.64746H22.8173C23.7876 9.64746 24.2821 10.7467 23.601 11.3922L12.1626 22.2012C11.4722 22.8555 10.2873 22.4018 10.2873 21.4858L10.25 10.6769C10.25 10.1098 10.7352 9.64746 11.3509 9.64746ZM50.1665 48.2357H38.6834C37.7125 48.2357 37.2177 47.1365 37.8992 46.4909L49.3357 35.682C50.0265 35.0277 51.2121 35.4813 51.2121 36.3973L51.2495 47.2063C51.2682 47.7733 50.7734 48.2357 50.1665 48.2357ZM11.9563 38.8844L41.3218 11.253C43.5968 9.11227 47.2787 9.11227 49.5438 11.253C51.8188 13.3937 51.8188 16.8581 49.5438 18.9894L20.1782 46.6302C17.9132 48.7709 14.2213 48.7709 11.9563 46.6302C9.68125 44.4895 9.68125 41.0251 11.9563 38.8844Z" fill="#222852"/>
</g>
<defs>
<linearGradient id="paint0_linear_505_44273" x1="0" y1="0" x2="109.325" y2="8199.37" gradientUnits="userSpaceOnUse">
<stop stop-color="#FFEE00"/>
<stop offset="1" stop-color="#FFCE00"/>
</linearGradient>
<clipPath id="clip0_505_44273">
<rect width="61.5" height="82" fill="white"/>
</clipPath>
</defs>
</svg>
