<svg width="24" height="28" viewBox="0 0 24 28" fill="none" xmlns="http://www.w3.org/2000/svg">
<path d="M23.1961 21.8205C22.7707 22.7987 22.2672 23.6992 21.6838 24.5271C20.8886 25.6557 20.2375 26.4369 19.7358 26.8707C18.958 27.5828 18.1245 27.9475 17.2321 27.9682C16.5915 27.9682 15.8188 27.7867 14.9195 27.4186C14.0171 27.0522 13.1879 26.8707 12.4297 26.8707C11.6345 26.8707 10.7816 27.0522 9.86946 27.4186C8.95584 27.7868 8.21986 27.9786 7.65713 27.9976C6.80135 28.0339 5.94835 27.6588 5.0969 26.8707C4.55344 26.3989 3.87372 25.59 3.05941 24.4441C2.18574 23.2204 1.46748 21.8015 0.904751 20.1837C0.302105 18.4364 0 16.7444 0 15.1063C0 13.2298 0.407324 11.6114 1.22318 10.2551C1.86437 9.16577 2.71738 8.30643 3.78499 7.6756C4.85259 7.04475 6.00616 6.72327 7.24843 6.70273C7.92817 6.70273 8.81954 6.91202 9.92727 7.32336C11.0319 7.7361 11.7411 7.94539 12.0521 7.94539C12.2845 7.94539 13.0725 7.70065 14.4081 7.21275C15.6713 6.76027 16.7373 6.57289 17.6106 6.64671C19.9771 6.83683 21.755 7.76546 22.9374 9.43851C20.8209 10.7151 19.774 12.503 19.7948 14.7967C19.8139 16.5833 20.465 18.07 21.7446 19.2505C22.3245 19.7984 22.9721 20.2218 23.6926 20.5225C23.5364 20.9736 23.3714 21.4057 23.1961 21.8205ZM17.7686 0.560166C17.7686 1.96048 17.2547 3.26795 16.2303 4.47815C14.9941 5.91683 13.4989 6.74815 11.8774 6.61697C11.8557 6.44092 11.8448 6.26372 11.8448 6.08636C11.8448 4.74206 12.4326 3.30338 13.4767 2.12708C13.9979 1.53149 14.6608 1.03628 15.4646 0.641228C16.2668 0.252076 17.0255 0.0368633 17.7391 0C17.76 0.187194 17.7686 0.374435 17.7686 0.560166Z" fill="#56545A"/>
</svg>
