<svg width="25" height="24" viewBox="0 0 25 24" fill="none" xmlns="http://www.w3.org/2000/svg">
<g clip-path="url(#clip0_651_6061)">
<path d="M18.0009 1.91699C16.8749 1.93451 15.7734 2.24885 14.8077 2.82826C13.842 3.40768 13.0463 4.23166 12.5009 5.21699C11.9556 4.23166 11.1599 3.40768 10.1942 2.82826C9.22848 2.24885 8.12698 1.93451 7.00094 1.91699C5.20588 1.99498 3.51464 2.78025 2.29672 4.10122C1.07879 5.4222 0.433184 7.17152 0.500935 8.96699C0.500935 13.514 5.28693 18.48 9.30093 21.847C10.1972 22.6001 11.3303 23.013 12.5009 23.013C13.6716 23.013 14.8047 22.6001 15.7009 21.847C19.7149 18.48 24.5009 13.514 24.5009 8.96699C24.5687 7.17152 23.9231 5.4222 22.7052 4.10122C21.4872 2.78025 19.796 1.99498 18.0009 1.91699ZM14.4159 20.317C13.8799 20.7684 13.2017 21.0159 12.5009 21.0159C11.8002 21.0159 11.122 20.7684 10.5859 20.317C5.44793 16.006 2.50093 11.87 2.50093 8.96699C2.43258 7.70171 2.8673 6.46072 3.7103 5.51469C4.5533 4.56866 5.73617 3.99434 7.00094 3.91699C8.2657 3.99434 9.44857 4.56866 10.2916 5.51469C11.1346 6.46072 11.5693 7.70171 11.5009 8.96699C11.5009 9.23221 11.6063 9.48656 11.7938 9.6741C11.9814 9.86164 12.2357 9.96699 12.5009 9.96699C12.7662 9.96699 13.0205 9.86164 13.208 9.6741C13.3956 9.48656 13.5009 9.23221 13.5009 8.96699C13.4326 7.70171 13.8673 6.46072 14.7103 5.51469C15.5533 4.56866 16.7362 3.99434 18.0009 3.91699C19.2657 3.99434 20.4486 4.56866 21.2916 5.51469C22.1346 6.46072 22.5693 7.70171 22.5009 8.96699C22.5009 11.87 19.5539 16.006 14.4159 20.313V20.317Z" fill="#343239"/>
</g>
<defs>
<clipPath id="clip0_651_6061">
<rect width="24" height="24" fill="white" transform="translate(0.5)"/>
</clipPath>
</defs>
</svg>
