<svg width="40" height="40" viewBox="0 0 40 40" fill="none" xmlns="http://www.w3.org/2000/svg">
<path d="M13.0026 3.33301H27.0026C32.3359 3.33301 36.6693 7.66634 36.6693 12.9997V26.9997C36.6693 29.5634 35.6508 32.0222 33.838 33.835C32.0251 35.6479 29.5664 36.6663 27.0026 36.6663H13.0026C7.66927 36.6663 3.33594 32.333 3.33594 26.9997V12.9997C3.33594 10.4359 4.35439 7.97716 6.16724 6.16431C7.98009 4.35146 10.4388 3.33301 13.0026 3.33301ZM12.6693 6.66634C11.078 6.66634 9.55185 7.29848 8.42663 8.4237C7.30141 9.54892 6.66927 11.075 6.66927 12.6663V27.333C6.66927 30.6497 9.3526 33.333 12.6693 33.333H27.3359C28.9272 33.333 30.4534 32.7009 31.5786 31.5756C32.7038 30.4504 33.3359 28.9243 33.3359 27.333V12.6663C33.3359 9.34967 30.6526 6.66634 27.3359 6.66634H12.6693ZM28.7526 9.16634C29.3051 9.16634 29.835 9.38583 30.2257 9.77654C30.6164 10.1672 30.8359 10.6971 30.8359 11.2497C30.8359 11.8022 30.6164 12.3321 30.2257 12.7228C29.835 13.1135 29.3051 13.333 28.7526 13.333C28.2001 13.333 27.6702 13.1135 27.2795 12.7228C26.8888 12.3321 26.6693 11.8022 26.6693 11.2497C26.6693 10.6971 26.8888 10.1672 27.2795 9.77654C27.6702 9.38583 28.2001 9.16634 28.7526 9.16634ZM20.0026 11.6663C22.2127 11.6663 24.3324 12.5443 25.8952 14.1071C27.458 15.6699 28.3359 17.7895 28.3359 19.9997C28.3359 22.2098 27.458 24.3294 25.8952 25.8922C24.3324 27.455 22.2127 28.333 20.0026 28.333C17.7925 28.333 15.6729 27.455 14.11 25.8922C12.5472 24.3294 11.6693 22.2098 11.6693 19.9997C11.6693 17.7895 12.5472 15.6699 14.11 14.1071C15.6729 12.5443 17.7925 11.6663 20.0026 11.6663ZM20.0026 14.9997C18.6765 14.9997 17.4048 15.5265 16.4671 16.4641C15.5294 17.4018 15.0026 18.6736 15.0026 19.9997C15.0026 21.3258 15.5294 22.5975 16.4671 23.5352C17.4048 24.4729 18.6765 24.9997 20.0026 24.9997C21.3287 24.9997 22.6005 24.4729 23.5381 23.5352C24.4758 22.5975 25.0026 21.3258 25.0026 19.9997C25.0026 18.6736 24.4758 17.4018 23.5381 16.4641C22.6005 15.5265 21.3287 14.9997 20.0026 14.9997Z" fill="white"/>
</svg>
