<svg width="32" height="32" viewBox="0 0 32 32" fill="none" xmlns="http://www.w3.org/2000/svg">
<path d="M16.0026 2.66699C10.1359 2.66699 5.33594 7.46699 5.33594 13.3337C5.33594 20.5337 14.6693 28.667 15.0693 29.067C15.3359 29.2003 15.7359 29.3337 16.0026 29.3337C16.2693 29.3337 16.6693 29.2003 16.9359 29.067C17.3359 28.667 26.6693 20.5337 26.6693 13.3337C26.6693 7.46699 21.8693 2.66699 16.0026 2.66699ZM16.0026 26.267C13.2026 23.6003 8.0026 17.867 8.0026 13.3337C8.0026 8.93366 11.6026 5.33366 16.0026 5.33366C20.4026 5.33366 24.0026 8.93366 24.0026 13.3337C24.0026 17.7337 18.8026 23.6003 16.0026 26.267ZM16.0026 8.00033C13.0693 8.00033 10.6693 10.4003 10.6693 13.3337C10.6693 16.267 13.0693 18.667 16.0026 18.667C18.9359 18.667 21.3359 16.267 21.3359 13.3337C21.3359 10.4003 18.9359 8.00033 16.0026 8.00033ZM16.0026 16.0003C14.5359 16.0003 13.3359 14.8003 13.3359 13.3337C13.3359 11.867 14.5359 10.667 16.0026 10.667C17.4693 10.667 18.6693 11.867 18.6693 13.3337C18.6693 14.8003 17.4693 16.0003 16.0026 16.0003Z" fill="#343239"/>
</svg>
