<svg width="24" height="24" viewBox="0 0 24 24" fill="none" xmlns="http://www.w3.org/2000/svg">
<path d="M20.6876 2.5H15.6363L14.0084 6.57025L16.6241 8.314C16.7781 8.41677 16.9044 8.55596 16.9917 8.71924C17.079 8.88252 17.1247 9.06483 17.1247 9.25C17.1213 9.35575 17.1247 9.25112 17.1247 9.25112V9.27475C17.124 9.32506 17.1218 9.37533 17.1179 9.4255C17.1112 9.51775 17.0999 9.64262 17.0786 9.79675C17.0347 10.1005 16.9503 10.519 16.7861 11.0117C16.4553 12.0017 15.8073 13.2831 14.5451 14.5454C13.2828 15.8076 12.0014 16.4556 11.0126 16.7864C10.5187 16.9506 10.1013 17.0339 9.79532 17.0789C9.62261 17.103 9.44874 17.118 9.27445 17.1239L9.25982 17.125H9.25082C9.25082 17.125 9.12482 17.1182 9.2497 17.125C9.04083 17.1249 8.83611 17.0666 8.65848 16.9568C8.48085 16.8469 8.33731 16.6897 8.24395 16.5029L7.4902 14.9954L2.4997 15.8279V20.6879C4.87457 21.031 11.2893 21.3696 16.3293 16.3296C21.3693 11.2896 21.0318 4.87375 20.6876 2.5ZM14.7926 9.79675L12.7597 8.44225C12.3302 8.15579 12.0123 7.73037 11.8593 7.23733C11.7063 6.7443 11.7275 6.21364 11.9193 5.73437L13.5472 1.66412C13.7142 1.24664 14.0026 0.888791 14.3749 0.636732C14.7473 0.384673 15.1867 0.24997 15.6363 0.25H20.7461C21.7687 0.25 22.7306 0.959875 22.8982 2.06912C23.2807 4.59137 23.7993 12.0411 17.9201 17.9204C12.0408 23.7996 4.59107 23.2799 2.06882 22.8985C0.959576 22.7297 0.249701 21.769 0.249701 20.7464V15.8279C0.249634 15.2953 0.438515 14.7799 0.78274 14.3734C1.12696 13.967 1.60421 13.6959 2.12957 13.6082L7.12007 12.7769C7.59472 12.6976 8.08226 12.7727 8.51111 12.991C8.93997 13.2092 9.28755 13.5592 9.50282 13.9896L9.89207 14.7692C10.0297 14.7354 10.166 14.6959 10.3004 14.6511C10.9979 14.4194 11.9666 13.9424 12.9543 12.9546C13.9421 11.9669 14.4191 10.9982 14.6508 10.2996C14.7062 10.1345 14.7531 9.96664 14.7914 9.79675H14.7926Z" fill="#343239"/>
</svg>
