<svg width="36" height="32" viewBox="0 0 36 32" fill="none" xmlns="http://www.w3.org/2000/svg">
<path fill-rule="evenodd" clip-rule="evenodd" d="M31.455 21.6608C30.9197 22.342 29.6088 22.8278 29.6088 22.8278L19.8561 26.3624V23.7558L27.0334 21.1755C27.8479 20.881 27.973 20.4648 27.3109 20.2462C26.6502 20.027 25.4536 20.0898 24.6385 20.3857L19.8561 22.0851V19.3798L20.1318 19.2858C20.1318 19.2858 21.5137 18.7923 23.457 18.5751C25.4002 18.3591 27.7794 18.6045 29.6473 19.319C31.7523 19.9902 31.9893 20.9795 31.4549 21.6608H31.455ZM20.7846 17.2221V10.5558C20.7846 9.77294 20.6414 9.05234 19.9134 8.84824C19.3558 8.66802 19.0099 9.19026 19.0099 9.97257V26.6665L14.5481 25.2376V5.33301C16.4452 5.68829 19.2092 6.52839 20.6949 7.03374C24.4736 8.34276 25.7548 9.97201 25.7548 13.6429C25.7548 17.2208 23.5659 18.5769 20.7846 17.2221ZM6.36095 23.4834C4.19989 22.8693 3.84031 21.5898 4.82524 20.8528C5.7356 20.1722 7.28376 19.6599 7.28376 19.6599L13.6813 17.3646V19.9814L9.0775 21.6437C8.26426 21.9381 8.13919 22.355 8.8001 22.5734C9.46142 22.7919 10.6586 22.7298 11.4731 22.4347L13.6813 21.6261V23.9672C13.5413 23.9923 13.3852 24.0175 13.2408 24.0419C11.0319 24.4061 8.67932 24.2541 6.36095 23.4832V23.4834ZM30.0337 24.5199C30.3132 24.5199 30.5751 24.629 30.7724 24.8306C30.8697 24.9281 30.9469 25.0441 30.9994 25.172C31.0519 25.2998 31.0788 25.4369 31.0784 25.5752C31.0789 25.7136 31.0521 25.8507 30.9996 25.9786C30.947 26.1064 30.8698 26.2224 30.7724 26.3199C30.6758 26.4184 30.5608 26.4965 30.4339 26.5497C30.3071 26.6028 30.171 26.6299 30.0337 26.6294C29.8964 26.6298 29.7604 26.6027 29.6336 26.5496C29.5068 26.4964 29.3918 26.4183 29.2952 26.3199C29.1978 26.2224 29.1207 26.1064 29.0682 25.9785C29.0158 25.8507 28.9891 25.7136 28.9897 25.5752C28.9897 24.9938 29.4576 24.5199 30.0337 24.5199ZM29.1651 25.5752C29.1651 25.8093 29.2553 26.0298 29.4197 26.1942C29.4999 26.2762 29.5955 26.3412 29.701 26.3854C29.8064 26.4296 29.9195 26.4521 30.0337 26.4516C30.2641 26.4516 30.485 26.3592 30.6479 26.1949C30.8108 26.0305 30.9023 25.8077 30.9024 25.5752C30.9024 25.3404 30.8128 25.1201 30.6479 24.9549C30.5676 24.873 30.4719 24.8081 30.3665 24.764C30.261 24.7199 30.1479 24.6975 30.0337 24.6981C29.9195 24.6975 29.8064 24.7199 29.701 24.764C29.5955 24.8082 29.4998 24.8731 29.4196 24.955C29.3385 25.0362 29.2743 25.1329 29.2306 25.2393C29.1869 25.3458 29.1647 25.46 29.1651 25.5752ZM30.3492 25.0071C30.4637 25.0579 30.5215 25.1559 30.5215 25.2952C30.5215 25.3668 30.5066 25.427 30.4762 25.4742C30.4543 25.5081 30.4233 25.5356 30.3884 25.5595C30.4158 25.5758 30.4401 25.5953 30.458 25.618C30.4829 25.6505 30.4973 25.7027 30.4991 25.7736L30.5047 25.9237C30.5066 25.9639 30.5091 25.9946 30.5153 26.0134C30.5215 26.0411 30.5333 26.0587 30.5484 26.0643L30.5639 26.0718V26.1402H30.3386L30.3312 26.1271C30.3244 26.1125 30.3194 26.0971 30.3162 26.0813C30.3116 26.0509 30.3089 26.0203 30.3082 25.9896L30.2988 25.8031C30.2963 25.7384 30.2746 25.6984 30.2335 25.6769C30.2079 25.665 30.1657 25.6594 30.1084 25.6594H29.7916V26.1402H29.5895V24.9669H30.1296C30.2179 24.9669 30.292 24.98 30.3492 25.0071ZM29.7916 25.4798H30.114C30.1787 25.4798 30.2303 25.4679 30.2671 25.4435C30.3007 25.4189 30.3169 25.3744 30.3169 25.3096C30.3169 25.2394 30.2938 25.1934 30.2453 25.169C30.2186 25.1559 30.1812 25.1483 30.1339 25.1483H29.7917V25.4798H29.7916Z" fill="#56545A"/>
</svg>
