<svg width="28" height="28" viewBox="0 0 28 28" fill="none" xmlns="http://www.w3.org/2000/svg">
<path d="M25.6654 13.9997C25.6654 20.4397 20.4387 25.6663 13.9987 25.6663C9.10453 25.6663 4.9162 22.6563 3.18953 18.3863C3.13703 18.2697 3.0962 18.153 3.04953 18.0363C3.0087 17.9255 2.96786 17.8088 2.93286 17.6922C2.54203 16.5313 2.33203 15.2888 2.33203 13.9997C2.33203 13.9005 2.33203 13.7955 2.3437 13.6963C2.33786 13.5972 2.3437 13.4922 2.34953 13.393C2.66453 7.23301 7.75703 2.33301 13.9987 2.33301C20.4387 2.33301 25.6654 7.55384 25.6654 13.9997Z" fill="url(#paint0_linear_583_4024)"/>
<path d="M16.6237 12.8333C17.7513 12.8333 18.6654 11.9192 18.6654 10.7917C18.6654 9.66409 17.7513 8.75 16.6237 8.75C15.4961 8.75 14.582 9.66409 14.582 10.7917C14.582 11.9192 15.4961 12.8333 16.6237 12.8333Z" fill="white"/>
<path opacity="0.07" d="M16.6263 8.45801C15.3371 8.45801 14.293 9.50217 14.293 10.7913C14.293 12.0805 15.3371 13.1247 16.6263 13.1247C17.9155 13.1247 18.9596 12.0805 18.9596 10.7913C18.9596 9.50217 17.9155 8.45801 16.6263 8.45801ZM16.6263 12.833C15.5005 12.833 14.5846 11.9172 14.5846 10.7913C14.5846 9.66551 15.5005 8.74967 16.6263 8.74967C17.7521 8.74967 18.668 9.66551 18.668 10.7913C18.668 11.9172 17.7521 12.833 16.6263 12.833Z" fill="black"/>
<path d="M16.6237 5.83301C13.8879 5.83301 11.6654 8.05551 11.6654 10.7913C11.6654 10.8963 11.677 10.9955 11.6829 11.0947L9.91536 13.9997C8.70786 13.9997 7.6287 14.5247 6.88203 15.353L2.33203 13.9997C2.33203 15.2888 2.54203 16.5313 2.93286 17.6922L5.87286 18.6313C6.1412 20.6263 7.84453 22.1663 9.91536 22.1663C12.1729 22.1663 13.9987 20.3405 13.9987 18.083C13.9987 17.8672 13.9754 17.6572 13.9462 17.453L16.8979 15.738C19.5054 15.5922 21.582 13.4338 21.582 10.7913C21.582 8.05551 19.3595 5.83301 16.6237 5.83301ZM9.91536 20.9997C8.6437 20.9997 7.57036 20.1772 7.1737 19.0455L9.3612 19.7397L9.36703 19.7338C9.36703 19.7397 9.37286 19.7397 9.3787 19.7397C9.46036 19.763 9.5362 19.7863 9.61786 19.8038C9.71703 19.8213 9.8162 19.833 9.91536 19.833C10.8837 19.833 11.6654 19.0513 11.6654 18.083C11.6654 17.3247 11.1695 16.6772 10.487 16.438C10.4812 16.4322 10.4695 16.4205 10.4695 16.4205L8.1887 15.7438C8.67286 15.388 9.26786 15.1663 9.91536 15.1663C11.5254 15.1663 12.832 16.473 12.832 18.083C12.832 19.693 11.5254 20.9997 9.91536 20.9997ZM16.6237 13.9997C14.8504 13.9997 13.4154 12.5647 13.4154 10.7913C13.4154 9.01801 14.8504 7.58301 16.6237 7.58301C18.397 7.58301 19.832 9.01801 19.832 10.7913C19.832 12.5647 18.397 13.9997 16.6237 13.9997Z" fill="white"/>
<path opacity="0.05" d="M19.4845 10.2025C19.4437 10.0158 19.3853 9.835 19.3153 9.66C19.2803 9.5725 19.2337 9.485 19.1928 9.40333C18.9187 8.9075 18.5103 8.49917 18.0145 8.225C17.9328 8.18417 17.8453 8.1375 17.7578 8.1025C17.5828 8.0325 17.402 7.97417 17.2153 7.93333C17.0228 7.89833 16.8245 7.875 16.6262 7.875C16.4278 7.875 16.2295 7.89833 16.037 7.93333C15.8503 7.97417 15.6695 8.0325 15.4945 8.1025C15.407 8.1375 15.3195 8.18417 15.2378 8.225C14.742 8.49917 14.3337 8.9075 14.0595 9.40333C14.0187 9.485 13.972 9.5725 13.937 9.66C13.867 9.835 13.8087 10.0158 13.7678 10.2025C13.7328 10.395 13.7095 10.5933 13.7095 10.7917C13.7095 10.99 13.7328 11.1883 13.7678 11.3808C13.8087 11.5675 13.867 11.7483 13.937 11.9233C13.972 12.0108 14.0187 12.0983 14.0595 12.18C14.3337 12.6758 14.742 13.0842 15.2378 13.3583C15.3195 13.3992 15.407 13.4458 15.4945 13.4808C15.6695 13.5508 15.8503 13.6092 16.037 13.65C16.2295 13.685 16.4278 13.7083 16.6262 13.7083C16.8245 13.7083 17.0228 13.685 17.2153 13.65C17.402 13.6092 17.5828 13.5508 17.7578 13.4808C17.8453 13.4458 17.9328 13.3992 18.0145 13.3583C18.5103 13.0842 18.9187 12.6758 19.1928 12.18C19.2337 12.0983 19.2803 12.0108 19.3153 11.9233C19.3853 11.7483 19.4437 11.5675 19.4845 11.3808C19.5195 11.1883 19.5428 10.99 19.5428 10.7917C19.5428 10.5933 19.5195 10.395 19.4845 10.2025ZM16.6262 13.125C15.337 13.125 14.2928 12.0808 14.2928 10.7917C14.2928 9.5025 15.337 8.45833 16.6262 8.45833C17.9153 8.45833 18.9595 9.5025 18.9595 10.7917C18.9595 12.0808 17.9153 13.125 16.6262 13.125ZM9.91783 15.4583C9.57367 15.4583 9.24117 15.5283 8.92617 15.6567L10.5537 16.1408L10.6237 16.1758L10.6295 16.1817C11.4287 16.4792 11.9595 17.2375 11.9595 18.0833C11.9595 19.2092 11.0437 20.125 9.91783 20.125C9.807 20.125 9.69033 20.1133 9.57367 20.09H9.55617L9.55033 20.1075L9.27617 20.02L7.742 19.53C8.22033 20.2533 9.03117 20.7083 9.91783 20.7083C11.3645 20.7083 12.5428 19.53 12.5428 18.0833C12.5428 16.6367 11.3645 15.4583 9.91783 15.4583ZM9.91783 15.4583C9.57367 15.4583 9.24117 15.5283 8.92617 15.6567L10.5537 16.1408L10.6237 16.1758L10.6295 16.1817C11.4287 16.4792 11.9595 17.2375 11.9595 18.0833C11.9595 19.2092 11.0437 20.125 9.91783 20.125C9.807 20.125 9.69033 20.1133 9.57367 20.09H9.55617L9.55033 20.1075L9.27617 20.02L7.742 19.53C8.22033 20.2533 9.03117 20.7083 9.91783 20.7083C11.3645 20.7083 12.5428 19.53 12.5428 18.0833C12.5428 16.6367 11.3645 15.4583 9.91783 15.4583ZM16.6262 5.25C13.5695 5.25 11.0845 7.735 11.0845 10.7917C11.0845 10.8442 11.0845 10.8967 11.0903 10.9492L9.58533 13.4283C8.512 13.5042 7.497 13.9533 6.71533 14.6942L2.50367 13.44L2.352 13.3933C2.34617 13.4925 2.34033 13.5975 2.34617 13.6967L2.41617 13.72L6.797 15.0267C7.57867 14.2275 8.64033 13.755 9.7545 13.7142L11.3878 11.025C11.382 10.9492 11.3762 10.8675 11.3762 10.7917C11.3762 7.89833 13.7328 5.54167 16.6262 5.54167C19.5195 5.54167 21.8762 7.89833 21.8762 10.7917C21.8762 13.5508 19.7353 15.8317 16.9878 16.0242L14.2637 17.6108C14.2812 17.7742 14.2928 17.9317 14.2928 18.0833C14.2928 20.4983 12.3328 22.4583 9.91783 22.4583C7.80033 22.4583 5.98033 20.9183 5.61283 18.8533L3.052 18.0367C3.09867 18.1533 3.1395 18.27 3.192 18.3867L5.362 19.0808C5.82283 21.1983 7.71867 22.75 9.91783 22.75C12.4903 22.75 14.5845 20.6558 14.5845 18.0833C14.5845 17.9783 14.5787 17.8733 14.5728 17.7683L17.0753 16.31C19.9453 16.0767 22.1678 13.6792 22.1678 10.7917C22.1678 7.735 19.6828 5.25 16.6262 5.25ZM9.91783 20.125C9.807 20.125 9.69033 20.1133 9.57367 20.09H9.55617L9.55033 20.1075L9.27617 20.02L7.742 19.53C8.22033 20.2533 9.03117 20.7083 9.91783 20.7083C11.3645 20.7083 12.5428 19.53 12.5428 18.0833C12.5428 16.6367 11.3645 15.4583 9.91783 15.4583C9.57367 15.4583 9.24117 15.5283 8.92617 15.6567L10.5537 16.1408L10.6237 16.1758L10.6295 16.1817C11.4287 16.4792 11.9595 17.2375 11.9595 18.0833C11.9595 19.2092 11.0437 20.125 9.91783 20.125ZM9.91783 15.4583C9.57367 15.4583 9.24117 15.5283 8.92617 15.6567L10.5537 16.1408L10.6237 16.1758L10.6295 16.1817C11.4287 16.4792 11.9595 17.2375 11.9595 18.0833C11.9595 19.2092 11.0437 20.125 9.91783 20.125C9.807 20.125 9.69033 20.1133 9.57367 20.09H9.55617L9.55033 20.1075L9.27617 20.02L7.742 19.53C8.22033 20.2533 9.03117 20.7083 9.91783 20.7083C11.3645 20.7083 12.5428 19.53 12.5428 18.0833C12.5428 16.6367 11.3645 15.4583 9.91783 15.4583ZM9.91783 15.4583C9.57367 15.4583 9.24117 15.5283 8.92617 15.6567L10.5537 16.1408L10.6237 16.1758L10.6295 16.1817C11.4287 16.4792 11.9595 17.2375 11.9595 18.0833C11.9595 19.2092 11.0437 20.125 9.91783 20.125C9.807 20.125 9.69033 20.1133 9.57367 20.09H9.55617L9.55033 20.1075L9.27617 20.02L7.742 19.53C8.22033 20.2533 9.03117 20.7083 9.91783 20.7083C11.3645 20.7083 12.5428 19.53 12.5428 18.0833C12.5428 16.6367 11.3645 15.4583 9.91783 15.4583ZM9.91783 15.4583C9.57367 15.4583 9.24117 15.5283 8.92617 15.6567L10.5537 16.1408L10.6237 16.1758L10.6295 16.1817C11.4287 16.4792 11.9595 17.2375 11.9595 18.0833C11.9595 19.2092 11.0437 20.125 9.91783 20.125C9.807 20.125 9.69033 20.1133 9.57367 20.09H9.55617L9.55033 20.1075L9.27617 20.02L7.742 19.53C8.22033 20.2533 9.03117 20.7083 9.91783 20.7083C11.3645 20.7083 12.5428 19.53 12.5428 18.0833C12.5428 16.6367 11.3645 15.4583 9.91783 15.4583ZM9.91783 15.4583C9.57367 15.4583 9.24117 15.5283 8.92617 15.6567L10.5537 16.1408L10.6237 16.1758L10.6295 16.1817C11.4287 16.4792 11.9595 17.2375 11.9595 18.0833C11.9595 19.2092 11.0437 20.125 9.91783 20.125C9.807 20.125 9.69033 20.1133 9.57367 20.09H9.55617L9.55033 20.1075L9.27617 20.02L7.742 19.53C8.22033 20.2533 9.03117 20.7083 9.91783 20.7083C11.3645 20.7083 12.5428 19.53 12.5428 18.0833C12.5428 16.6367 11.3645 15.4583 9.91783 15.4583Z" fill="black"/>
<path opacity="0.07" d="M16.6237 5.54199C13.7304 5.54199 11.3737 7.89866 11.3737 10.792C11.3737 10.8678 11.3795 10.9495 11.3854 11.0253L9.75203 13.7145C8.63786 13.7553 7.5762 14.2278 6.79453 15.027L2.4137 13.7203L2.3437 13.697C2.33203 13.7962 2.33203 13.9012 2.33203 14.0003L6.88203 15.3537C7.6287 14.5253 8.70786 14.0003 9.91536 14.0003L11.6829 11.0953C11.677 10.9962 11.6654 10.897 11.6654 10.792C11.6654 8.05616 13.8879 5.83366 16.6237 5.83366C19.3595 5.83366 21.582 8.05616 21.582 10.792C21.582 13.4345 19.5054 15.5928 16.8979 15.7387L13.9462 17.4537C13.9754 17.6578 13.9987 17.8678 13.9987 18.0837C13.9987 20.3412 12.1729 22.167 9.91536 22.167C7.84453 22.167 6.1412 20.627 5.87286 18.632L2.93286 17.6928C2.96786 17.8095 3.0087 17.9262 3.04953 18.037L5.61036 18.8537C5.97786 20.9187 7.79786 22.4587 9.91536 22.4587C12.3304 22.4587 14.2904 20.4987 14.2904 18.0837C14.2904 17.932 14.2787 17.7745 14.2612 17.6112L16.9854 16.0245C19.7329 15.832 21.8737 13.5512 21.8737 10.792C21.8737 7.89866 19.517 5.54199 16.6237 5.54199ZM16.6237 14.0003C18.397 14.0003 19.832 12.5653 19.832 10.792C19.832 9.01866 18.397 7.58366 16.6237 7.58366C14.8504 7.58366 13.4154 9.01866 13.4154 10.792C13.4154 12.5653 14.8504 14.0003 16.6237 14.0003ZM13.9345 11.9237C13.8587 11.7487 13.8062 11.5678 13.7654 11.3812C13.7304 11.1887 13.707 10.9903 13.707 10.792C13.707 10.5937 13.7304 10.3953 13.7654 10.2028C13.8062 10.0162 13.8587 9.83533 13.9345 9.66033C13.9695 9.57282 14.0162 9.48533 14.057 9.40366C14.3312 8.90783 14.7395 8.49949 15.2354 8.22533C15.317 8.18449 15.4045 8.13783 15.492 8.10283C15.667 8.02699 15.8479 7.97449 16.0345 7.93366C16.227 7.89866 16.4254 7.87533 16.6237 7.87533C16.822 7.87533 17.0204 7.89866 17.2129 7.93366C17.3995 7.97449 17.5804 8.02699 17.7554 8.10283C17.8429 8.13783 17.9304 8.18449 18.012 8.22533C18.5079 8.49949 18.9162 8.90783 19.1904 9.40366C19.2312 9.48533 19.2779 9.57282 19.3129 9.66033C19.3887 9.83533 19.4412 10.0162 19.482 10.2028C19.517 10.3953 19.5404 10.5937 19.5404 10.792C19.5404 10.9903 19.517 11.1887 19.482 11.3812C19.4412 11.5678 19.3887 11.7487 19.3129 11.9237C19.2779 12.0112 19.2312 12.0987 19.1904 12.1803C18.9162 12.6762 18.5079 13.0845 18.012 13.3587C17.9304 13.3995 17.8429 13.4462 17.7554 13.4812C17.5804 13.557 17.3995 13.6095 17.2129 13.6503C17.0204 13.6853 16.822 13.7087 16.6237 13.7087C16.4254 13.7087 16.227 13.6853 16.0345 13.6503C15.8479 13.6095 15.667 13.557 15.492 13.4812C15.4045 13.4462 15.317 13.3995 15.2354 13.3587C14.7395 13.0845 14.3312 12.6762 14.057 12.1803C14.0162 12.0987 13.9695 12.0112 13.9345 11.9237ZM9.91536 19.8337C9.8162 19.8337 9.71703 19.822 9.61786 19.8045C9.5362 19.787 9.46036 19.7637 9.3787 19.7403C9.37286 19.7403 9.36703 19.7403 9.36703 19.7345L9.3612 19.7403L7.1737 19.0462C7.57036 20.1778 8.6437 21.0003 9.91536 21.0003C11.5254 21.0003 12.832 19.6937 12.832 18.0837C12.832 16.4737 11.5254 15.167 9.91536 15.167C9.26786 15.167 8.67286 15.3887 8.1887 15.7445L10.4695 16.4212C10.4695 16.4212 10.4812 16.4328 10.487 16.4387C11.1695 16.6778 11.6654 17.3253 11.6654 18.0837C11.6654 19.052 10.8837 19.8337 9.91536 19.8337ZM11.957 18.0837C11.957 17.2378 11.4262 16.4795 10.627 16.182L10.6212 16.1762L10.5512 16.1412L8.9237 15.657C9.2387 15.5287 9.5712 15.4587 9.91536 15.4587C11.362 15.4587 12.5404 16.637 12.5404 18.0837C12.5404 19.5303 11.362 20.7087 9.91536 20.7087C9.0287 20.7087 8.21786 20.2537 7.73953 19.5303L9.2737 20.0203L9.54786 20.1078L9.5537 20.0903H9.5712C9.68786 20.1137 9.80453 20.1253 9.91536 20.1253C11.0412 20.1253 11.957 19.2095 11.957 18.0837ZM9.91536 15.167C9.26786 15.167 8.67286 15.3887 8.1887 15.7445L10.4695 16.4212C10.4695 16.4212 10.4812 16.4328 10.487 16.4387C11.1695 16.6778 11.6654 17.3253 11.6654 18.0837C11.6654 19.052 10.8837 19.8337 9.91536 19.8337C9.8162 19.8337 9.71703 19.822 9.61786 19.8045C9.5362 19.787 9.46036 19.7637 9.3787 19.7403C9.37286 19.7403 9.36703 19.7403 9.36703 19.7345L9.3612 19.7403L7.1737 19.0462C7.57036 20.1778 8.6437 21.0003 9.91536 21.0003C11.5254 21.0003 12.832 19.6937 12.832 18.0837C12.832 16.4737 11.5254 15.167 9.91536 15.167ZM9.91536 20.7087C9.0287 20.7087 8.21786 20.2537 7.73953 19.5303L9.2737 20.0203L9.54786 20.1078L9.5537 20.0903H9.5712C9.68786 20.1137 9.80453 20.1253 9.91536 20.1253C11.0412 20.1253 11.957 19.2095 11.957 18.0837C11.957 17.2378 11.4262 16.4795 10.627 16.182L10.6212 16.1762L10.5512 16.1412L8.9237 15.657C9.2387 15.5287 9.5712 15.4587 9.91536 15.4587C11.362 15.4587 12.5404 16.637 12.5404 18.0837C12.5404 19.5303 11.362 20.7087 9.91536 20.7087ZM16.6237 7.58366C14.8504 7.58366 13.4154 9.01866 13.4154 10.792C13.4154 12.5653 14.8504 14.0003 16.6237 14.0003C18.397 14.0003 19.832 12.5653 19.832 10.792C19.832 9.01866 18.397 7.58366 16.6237 7.58366ZM19.3129 11.9237C19.2779 12.0112 19.2312 12.0987 19.1904 12.1803C18.9162 12.6762 18.5079 13.0845 18.012 13.3587C17.9304 13.3995 17.8429 13.4462 17.7554 13.4812C17.5804 13.557 17.3995 13.6095 17.2129 13.6503C17.0204 13.6853 16.822 13.7087 16.6237 13.7087C16.4254 13.7087 16.227 13.6853 16.0345 13.6503C15.8479 13.6095 15.667 13.557 15.492 13.4812C15.4045 13.4462 15.317 13.3995 15.2354 13.3587C14.7395 13.0845 14.3312 12.6762 14.057 12.1803C14.0162 12.0987 13.9695 12.0112 13.9345 11.9237C13.8587 11.7487 13.8062 11.5678 13.7654 11.3812C13.7304 11.1887 13.707 10.9903 13.707 10.792C13.707 10.5937 13.7304 10.3953 13.7654 10.2028C13.8062 10.0162 13.8587 9.83533 13.9345 9.66033C13.9695 9.57282 14.0162 9.48533 14.057 9.40366C14.3312 8.90783 14.7395 8.49949 15.2354 8.22533C15.317 8.18449 15.4045 8.13783 15.492 8.10283C15.667 8.02699 15.8479 7.97449 16.0345 7.93366C16.227 7.89866 16.4254 7.87533 16.6237 7.87533C16.822 7.87533 17.0204 7.89866 17.2129 7.93366C17.3995 7.97449 17.5804 8.02699 17.7554 8.10283C17.8429 8.13783 17.9304 8.18449 18.012 8.22533C18.5079 8.49949 18.9162 8.90783 19.1904 9.40366C19.2312 9.48533 19.2779 9.57282 19.3129 9.66033C19.3887 9.83533 19.4412 10.0162 19.482 10.2028C19.517 10.3953 19.5404 10.5937 19.5404 10.792C19.5404 10.9903 19.517 11.1887 19.482 11.3812C19.4412 11.5678 19.3887 11.7487 19.3129 11.9237ZM16.6237 7.58366C14.8504 7.58366 13.4154 9.01866 13.4154 10.792C13.4154 12.5653 14.8504 14.0003 16.6237 14.0003C18.397 14.0003 19.832 12.5653 19.832 10.792C19.832 9.01866 18.397 7.58366 16.6237 7.58366ZM19.3129 11.9237C19.2779 12.0112 19.2312 12.0987 19.1904 12.1803C18.9162 12.6762 18.5079 13.0845 18.012 13.3587C17.9304 13.3995 17.8429 13.4462 17.7554 13.4812C17.5804 13.557 17.3995 13.6095 17.2129 13.6503C17.0204 13.6853 16.822 13.7087 16.6237 13.7087C16.4254 13.7087 16.227 13.6853 16.0345 13.6503C15.8479 13.6095 15.667 13.557 15.492 13.4812C15.4045 13.4462 15.317 13.3995 15.2354 13.3587C14.7395 13.0845 14.3312 12.6762 14.057 12.1803C14.0162 12.0987 13.9695 12.0112 13.9345 11.9237C13.8587 11.7487 13.8062 11.5678 13.7654 11.3812C13.7304 11.1887 13.707 10.9903 13.707 10.792C13.707 10.5937 13.7304 10.3953 13.7654 10.2028C13.8062 10.0162 13.8587 9.83533 13.9345 9.66033C13.9695 9.57282 14.0162 9.48533 14.057 9.40366C14.3312 8.90783 14.7395 8.49949 15.2354 8.22533C15.317 8.18449 15.4045 8.13783 15.492 8.10283C15.667 8.02699 15.8479 7.97449 16.0345 7.93366C16.227 7.89866 16.4254 7.87533 16.6237 7.87533C16.822 7.87533 17.0204 7.89866 17.2129 7.93366C17.3995 7.97449 17.5804 8.02699 17.7554 8.10283C17.8429 8.13783 17.9304 8.18449 18.012 8.22533C18.5079 8.49949 18.9162 8.90783 19.1904 9.40366C19.2312 9.48533 19.2779 9.57282 19.3129 9.66033C19.3887 9.83533 19.4412 10.0162 19.482 10.2028C19.517 10.3953 19.5404 10.5937 19.5404 10.792C19.5404 10.9903 19.517 11.1887 19.482 11.3812C19.4412 11.5678 19.3887 11.7487 19.3129 11.9237ZM9.91536 15.167C9.26786 15.167 8.67286 15.3887 8.1887 15.7445L10.4695 16.4212C10.4695 16.4212 10.4812 16.4328 10.487 16.4387C11.1695 16.6778 11.6654 17.3253 11.6654 18.0837C11.6654 19.052 10.8837 19.8337 9.91536 19.8337C9.8162 19.8337 9.71703 19.822 9.61786 19.8045C9.5362 19.787 9.46036 19.7637 9.3787 19.7403C9.37286 19.7403 9.36703 19.7403 9.36703 19.7345L9.3612 19.7403L7.1737 19.0462C7.57036 20.1778 8.6437 21.0003 9.91536 21.0003C11.5254 21.0003 12.832 19.6937 12.832 18.0837C12.832 16.4737 11.5254 15.167 9.91536 15.167ZM9.91536 20.7087C9.0287 20.7087 8.21786 20.2537 7.73953 19.5303L9.2737 20.0203L9.54786 20.1078L9.5537 20.0903H9.5712C9.68786 20.1137 9.80453 20.1253 9.91536 20.1253C11.0412 20.1253 11.957 19.2095 11.957 18.0837C11.957 17.2378 11.4262 16.4795 10.627 16.182L10.6212 16.1762L10.5512 16.1412L8.9237 15.657C9.2387 15.5287 9.5712 15.4587 9.91536 15.4587C11.362 15.4587 12.5404 16.637 12.5404 18.0837C12.5404 19.5303 11.362 20.7087 9.91536 20.7087Z" fill="black"/>
<path opacity="0.07" d="M16.6263 7.58301C14.853 7.58301 13.418 9.01801 13.418 10.7913C13.418 12.5647 14.853 13.9997 16.6263 13.9997C18.3996 13.9997 19.8346 12.5647 19.8346 10.7913C19.8346 9.01801 18.3996 7.58301 16.6263 7.58301ZM19.3155 11.923C19.2805 12.0105 19.2338 12.098 19.193 12.1797C18.9188 12.6755 18.5105 13.0838 18.0146 13.358C17.933 13.3988 17.8455 13.4455 17.758 13.4805C17.583 13.5563 17.4021 13.6088 17.2155 13.6497C17.023 13.6847 16.8246 13.708 16.6263 13.708C16.428 13.708 16.2296 13.6847 16.0371 13.6497C15.8505 13.6088 15.6696 13.5563 15.4946 13.4805C15.4071 13.4455 15.3196 13.3988 15.238 13.358C14.7421 13.0838 14.3338 12.6755 14.0596 12.1797C14.0188 12.098 13.9721 12.0105 13.9371 11.923C13.8613 11.748 13.8088 11.5672 13.768 11.3805C13.733 11.188 13.7096 10.9897 13.7096 10.7913C13.7096 10.593 13.733 10.3947 13.768 10.2022C13.8088 10.0155 13.8613 9.83467 13.9371 9.65967C13.9721 9.57217 14.0188 9.48468 14.0596 9.40301C14.3338 8.90718 14.7421 8.49884 15.238 8.22467C15.3196 8.18384 15.4071 8.13717 15.4946 8.10217C15.6696 8.02634 15.8505 7.97384 16.0371 7.93301C16.2296 7.89801 16.428 7.87467 16.6263 7.87467C16.8246 7.87467 17.023 7.89801 17.2155 7.93301C17.4021 7.97384 17.583 8.02634 17.758 8.10217C17.8455 8.13717 17.933 8.18384 18.0146 8.22467C18.5105 8.49884 18.9188 8.90718 19.193 9.40301C19.2338 9.48468 19.2805 9.57217 19.3155 9.65967C19.3913 9.83467 19.4438 10.0155 19.4846 10.2022C19.5196 10.3947 19.543 10.593 19.543 10.7913C19.543 10.9897 19.5196 11.188 19.4846 11.3805C19.4438 11.5672 19.3913 11.748 19.3155 11.923ZM16.6263 7.58301C14.853 7.58301 13.418 9.01801 13.418 10.7913C13.418 12.5647 14.853 13.9997 16.6263 13.9997C18.3996 13.9997 19.8346 12.5647 19.8346 10.7913C19.8346 9.01801 18.3996 7.58301 16.6263 7.58301ZM19.3155 11.923C19.2805 12.0105 19.2338 12.098 19.193 12.1797C18.9188 12.6755 18.5105 13.0838 18.0146 13.358C17.933 13.3988 17.8455 13.4455 17.758 13.4805C17.583 13.5563 17.4021 13.6088 17.2155 13.6497C17.023 13.6847 16.8246 13.708 16.6263 13.708C16.428 13.708 16.2296 13.6847 16.0371 13.6497C15.8505 13.6088 15.6696 13.5563 15.4946 13.4805C15.4071 13.4455 15.3196 13.3988 15.238 13.358C14.7421 13.0838 14.3338 12.6755 14.0596 12.1797C14.0188 12.098 13.9721 12.0105 13.9371 11.923C13.8613 11.748 13.8088 11.5672 13.768 11.3805C13.733 11.188 13.7096 10.9897 13.7096 10.7913C13.7096 10.593 13.733 10.3947 13.768 10.2022C13.8088 10.0155 13.8613 9.83467 13.9371 9.65967C13.9721 9.57217 14.0188 9.48468 14.0596 9.40301C14.3338 8.90718 14.7421 8.49884 15.238 8.22467C15.3196 8.18384 15.4071 8.13717 15.4946 8.10217C15.6696 8.02634 15.8505 7.97384 16.0371 7.93301C16.2296 7.89801 16.428 7.87467 16.6263 7.87467C16.8246 7.87467 17.023 7.89801 17.2155 7.93301C17.4021 7.97384 17.583 8.02634 17.758 8.10217C17.8455 8.13717 17.933 8.18384 18.0146 8.22467C18.5105 8.49884 18.9188 8.90718 19.193 9.40301C19.2338 9.48468 19.2805 9.57217 19.3155 9.65967C19.3913 9.83467 19.4438 10.0155 19.4846 10.2022C19.5196 10.3947 19.543 10.593 19.543 10.7913C19.543 10.9897 19.5196 11.188 19.4846 11.3805C19.4438 11.5672 19.3913 11.748 19.3155 11.923ZM16.6263 7.58301C14.853 7.58301 13.418 9.01801 13.418 10.7913C13.418 12.5647 14.853 13.9997 16.6263 13.9997C18.3996 13.9997 19.8346 12.5647 19.8346 10.7913C19.8346 9.01801 18.3996 7.58301 16.6263 7.58301ZM19.3155 11.923C19.2805 12.0105 19.2338 12.098 19.193 12.1797C18.9188 12.6755 18.5105 13.0838 18.0146 13.358C17.933 13.3988 17.8455 13.4455 17.758 13.4805C17.583 13.5563 17.4021 13.6088 17.2155 13.6497C17.023 13.6847 16.8246 13.708 16.6263 13.708C16.428 13.708 16.2296 13.6847 16.0371 13.6497C15.8505 13.6088 15.6696 13.5563 15.4946 13.4805C15.4071 13.4455 15.3196 13.3988 15.238 13.358C14.7421 13.0838 14.3338 12.6755 14.0596 12.1797C14.0188 12.098 13.9721 12.0105 13.9371 11.923C13.8613 11.748 13.8088 11.5672 13.768 11.3805C13.733 11.188 13.7096 10.9897 13.7096 10.7913C13.7096 10.593 13.733 10.3947 13.768 10.2022C13.8088 10.0155 13.8613 9.83467 13.9371 9.65967C13.9721 9.57217 14.0188 9.48468 14.0596 9.40301C14.3338 8.90718 14.7421 8.49884 15.238 8.22467C15.3196 8.18384 15.4071 8.13717 15.4946 8.10217C15.6696 8.02634 15.8505 7.97384 16.0371 7.93301C16.2296 7.89801 16.428 7.87467 16.6263 7.87467C16.8246 7.87467 17.023 7.89801 17.2155 7.93301C17.4021 7.97384 17.583 8.02634 17.758 8.10217C17.8455 8.13717 17.933 8.18384 18.0146 8.22467C18.5105 8.49884 18.9188 8.90718 19.193 9.40301C19.2338 9.48468 19.2805 9.57217 19.3155 9.65967C19.3913 9.83467 19.4438 10.0155 19.4846 10.2022C19.5196 10.3947 19.543 10.593 19.543 10.7913C19.543 10.9897 19.5196 11.188 19.4846 11.3805C19.4438 11.5672 19.3913 11.748 19.3155 11.923Z" fill="black"/>
<defs>
<linearGradient id="paint0_linear_583_4024" x1="13.9987" y1="25.6663" x2="13.9987" y2="2.33301" gradientUnits="userSpaceOnUse">
<stop stop-color="#0176D0"/>
<stop offset="1" stop-color="#16538C"/>
</linearGradient>
</defs>
</svg>
