<svg width="33" height="33" viewBox="0 0 33 33" fill="none" xmlns="http://www.w3.org/2000/svg">
<g clip-path="url(#clip0_505_44196)">
<path d="M31.8529 3.30047L32.9529 3.22787C32.9387 3.01192 32.861 2.80498 32.7297 2.63295C32.5983 2.46093 32.4192 2.33147 32.2146 2.26078C32.0101 2.19009 31.7892 2.18131 31.5797 2.23554C31.3702 2.28978 31.1813 2.40461 31.0368 2.56567L31.8529 3.30047ZM30.7573 9.81027C30.7573 9.51853 30.6415 9.23874 30.4352 9.03245C30.2289 8.82616 29.9491 8.71027 29.6573 8.71027C29.3656 8.71027 29.0858 8.82616 28.8795 9.03245C28.6732 9.23874 28.5573 9.51853 28.5573 9.81027H30.7573ZM1.10135 27.5005V26.4005C0.865154 26.4002 0.63514 26.4759 0.445332 26.6165C0.255523 26.7571 0.116002 26.955 0.0474086 27.181C-0.0211852 27.407 -0.0152087 27.6491 0.064454 27.8715C0.144117 28.0938 0.293235 28.2846 0.489748 28.4157L1.10135 27.5005ZM3.29695 3.30047L4.32875 2.91547C4.25377 2.71463 4.12173 2.54007 3.94888 2.41326C3.77602 2.28646 3.56987 2.21292 3.35578 2.2017C3.14169 2.19048 2.92899 2.24207 2.74383 2.35012C2.55867 2.45816 2.40911 2.61796 2.31355 2.80987L3.29695 3.30047ZM12.0837 23.1005L12.8625 23.8771C12.9947 23.7445 13.0908 23.5804 13.1418 23.4004C13.1929 23.2203 13.1971 23.0302 13.1541 22.848C13.1112 22.6659 13.0225 22.4977 12.8964 22.3594C12.7703 22.2211 12.611 22.1172 12.4335 22.0577L12.0837 23.1005ZM27.9765 5.44107L27.1625 6.18027L27.5585 6.61807L28.1416 6.53007L27.9765 5.44107ZM30.7573 3.37307C30.8695 5.08467 30.764 6.12307 30.4867 6.90627C30.2184 7.66527 29.7475 8.29007 28.8961 9.10627L30.4186 10.6947C31.3822 9.77067 32.1258 8.86427 32.5614 7.64107C32.986 6.43987 33.0739 5.04947 32.9529 3.22787L30.7573 3.37307ZM30.7573 11.4119V9.81027H28.5573V11.4141H30.7573V11.4119ZM15.3793 9.99067V12.1005H17.5793V9.99067H15.3793ZM15.3793 12.1005V13.2005H17.5793V12.1005H15.3793ZM23.1563 2.20047C22.1339 2.20105 21.1216 2.40301 20.1772 2.79481C19.2328 3.18662 18.3748 3.7606 17.6522 4.48399C16.9297 5.20738 16.3567 6.066 15.9659 7.01084C15.5752 7.95568 15.3744 8.96822 15.3749 9.99067H17.5749C17.5744 9.25695 17.7184 8.5303 17.9987 7.85223C18.279 7.17417 18.6901 6.55797 19.2087 6.03885C19.7272 5.51972 20.3429 5.10783 21.0206 4.82672C21.6983 4.5456 22.4248 4.40076 23.1586 4.40047V2.20047H23.1563ZM28.5551 11.4119C28.5574 20.9071 20.8727 28.6005 11.3973 28.6005V30.8005C22.0893 30.8005 30.7573 22.1193 30.7573 11.4119H28.5551ZM2.26735 3.68547C3.46415 6.87987 7.95215 13.2005 16.4793 13.2005V11.0005C9.18415 11.0005 5.32755 5.58847 4.32655 2.91547L2.26735 3.68547ZM2.31355 2.80987C0.0101479 7.42107 -0.344052 11.8959 1.33015 15.7063C2.99995 19.5057 6.59255 22.4273 11.7361 24.1433L12.4335 22.0577C7.69255 20.4737 4.69395 17.8953 3.34315 14.8197C1.99675 11.7551 2.19255 7.97767 4.28255 3.79107L2.31355 2.80987ZM11.3049 22.3239C9.98055 23.6505 5.99855 26.4005 1.10135 26.4005V28.6005C6.74655 28.6005 11.2587 25.4853 12.8625 23.8771L11.3049 22.3239ZM28.7927 4.70407C28.0815 3.91527 27.2123 3.28477 26.2417 2.85347C25.2711 2.42217 24.2207 2.19969 23.1586 2.20047V4.40047C24.7447 4.40047 26.1725 5.08467 27.1625 6.18027L28.7927 4.70407ZM28.1416 6.53007C29.894 6.24377 31.4943 5.36279 32.6735 4.03527L31.0368 2.56567C30.198 3.5133 29.0596 4.14461 27.8116 4.35427L28.1416 6.53007ZM0.489748 28.4157C4.09995 30.8225 7.88395 30.8005 11.3973 30.8005V28.6005C7.81135 28.6005 4.69175 28.5763 1.71295 26.5853L0.489748 28.4157Z" fill="white"/>
</g>
<defs>
<clipPath id="clip0_505_44196">
<rect width="33" height="33" fill="white"/>
</clipPath>
</defs>
</svg>
