<svg width="29" height="28" viewBox="0 0 29 28" fill="none" xmlns="http://www.w3.org/2000/svg">
<g clip-path="url(#clip0_505_43507)">
<path d="M8.72982 3.63425C12.0841 1.68267 16.3851 1.51771 19.892 3.16183C20.2971 3.3866 20.8442 3.48505 21.0685 3.93119C18.9278 3.64656 16.8638 4.58113 15.0405 5.60336C14.6057 5.82291 14.2217 5.37165 13.8359 5.2257C12.151 4.50207 10.3712 3.6695 8.48798 3.94177C8.54745 3.86616 8.67016 3.71154 8.72982 3.63425ZM2.98434 11.2229C3.54183 9.07634 4.65525 7.04944 6.26837 5.52096C7.0136 5.32253 7.72737 5.75808 8.3549 6.10764C9.52267 6.84545 10.4854 7.85193 11.5251 8.75125C9.48409 11.2791 7.60623 13.9668 6.19981 16.9051C5.53715 18.37 4.83222 19.9774 5.20041 21.618C4.73565 21.2861 4.50256 20.7432 4.20965 20.2708C2.64391 17.5674 2.20741 14.2474 2.98409 11.2225L2.98434 11.2229ZM22.0323 5.71752C22.4444 5.56467 22.9581 5.32066 23.3703 5.58756C26.9454 8.97075 28.0202 14.662 25.9723 19.1362C25.5392 20.0074 25.1481 20.9683 24.4011 21.6165C24.4801 21.1195 24.5783 20.6136 24.4766 20.1111C24.1996 18.3247 23.3403 16.7052 22.4899 15.1348C21.2292 12.8794 19.7196 10.7767 18.1118 8.75849C19.311 7.62012 20.5279 6.44159 22.0322 5.71777L22.0323 5.71752ZM7.90616 18.9746C9.83656 16.2606 12.1881 13.8402 14.8129 11.7934C17.087 13.5887 19.1492 15.6579 20.9427 17.9364C21.7845 19.0588 22.6296 20.2252 23.0627 21.5761C23.2556 22.1997 23.3256 23.0183 22.7576 23.4733C21.027 24.9575 18.8756 25.9674 16.6136 26.2749C13.1489 26.8035 9.47731 25.7601 6.8294 23.4538C6.43487 23.1219 6.34199 22.551 6.43836 22.068C6.64703 20.9279 7.2748 19.9249 7.90596 18.9746H7.90616ZM17.7714 31.1512C19.7194 29.7037 22.4302 29.4474 24.6551 30.3713C25.949 30.9053 27.001 31.9029 27.7762 33.0535C28.5266 34.4781 28.9177 36.0906 28.8614 37.7049C28.8299 39.8339 28.0532 42.0349 26.4295 43.4648C23.7327 45.8574 19.107 45.6183 16.7505 42.8553C15.1093 40.9845 14.6517 38.3303 15.025 35.9237C15.162 34.854 15.6194 33.8756 16.0702 32.9096C16.5962 32.2859 17.1047 31.6326 17.771 31.1512M21.0708 31.4779C20.0014 31.6658 18.9125 32.1139 18.2514 33.0167C17.1153 34.0775 16.6679 35.6568 16.6033 37.1692C16.577 38.9469 17.0327 40.8598 18.3548 42.1278C20.1398 43.9528 23.3538 44.0143 25.2385 42.3104C26.2608 41.4146 26.8745 40.1201 27.0743 38.7867C27.3707 36.9951 27.0866 35.0487 26.0452 33.5347C25.7277 33.1553 25.3368 32.8444 25.023 32.4613C23.9305 31.5726 22.4419 31.2897 21.0707 31.4778L21.0708 31.4779ZM-10.44 30.1849C-9.79997 30.178 -9.15819 30.1797 -8.51818 30.1762C-7.15403 32.0557 -5.65493 33.8334 -4.36085 35.7654C-3.0284 33.9123 -1.53273 32.1786 -0.307018 30.2535C0.364492 30.0761 1.08171 30.2009 1.77066 30.1903C0.10663 32.5353 -1.66061 34.8047 -3.31923 37.1568C-2.73889 37.8208 -2.26184 38.5672 -1.76391 39.2928C-0.413761 41.125 0.932652 42.9588 2.27936 44.7929C1.62706 44.7892 0.974914 44.7875 0.322618 44.7858C-1.20469 42.7236 -2.70901 40.6456 -4.28718 38.6221C-4.72374 38.9084 -4.90788 39.4671 -5.26374 39.8447C-5.75115 40.2943 -6.08789 40.8741 -6.49466 41.3921C-7.31881 42.527 -8.16557 43.6459 -8.98973 44.7823C-9.64551 44.7823 -10.3013 44.7858 -10.957 44.793C-9.38957 42.6957 -7.86225 40.5684 -6.3 38.4674C-5.96695 38.0422 -5.82664 37.4538 -5.34266 37.1604C-5.88266 36.5316 -6.37027 35.8588 -6.81739 35.1615C-7.35911 34.4377 -7.95518 33.7562 -8.49887 33.0325C-8.96348 31.9733 -9.82096 31.153 -10.4399 30.185L-10.44 30.1849Z" fill="#15CF74"/>
</g>
<defs>
<clipPath id="clip0_505_43507">
<rect width="29" height="28" fill="white"/>
</clipPath>
</defs>
</svg>
