<svg width="10" height="6" viewBox="0 0 10 6" fill="none" xmlns="http://www.w3.org/2000/svg">
<path d="M9.47256 0.472589C9.41058 0.410104 9.33685 0.360507 9.25561 0.326662C9.17437 0.292816 9.08723 0.275391 8.99923 0.275391C8.91122 0.275391 8.82408 0.292816 8.74284 0.326662C8.6616 0.360507 8.58787 0.410104 8.52589 0.472589L5.47256 3.52592C5.41058 3.5884 5.33685 3.638 5.25561 3.67184C5.17437 3.70569 5.08723 3.72311 4.99923 3.72311C4.91122 3.72311 4.82408 3.70569 4.74284 3.67184C4.6616 3.638 4.58787 3.5884 4.52589 3.52592L1.47256 0.472589C1.41058 0.410104 1.33685 0.360507 1.25561 0.326662C1.17437 0.292816 1.08723 0.275391 0.999226 0.275391C0.911218 0.275391 0.824081 0.292816 0.742842 0.326662C0.661602 0.360507 0.587868 0.410104 0.525893 0.472589C0.401726 0.597497 0.332031 0.766465 0.332031 0.942588C0.332031 1.11871 0.401726 1.28768 0.525893 1.41259L3.58589 4.47258C3.96089 4.84711 4.46922 5.05749 4.99923 5.05749C5.52923 5.05749 6.03756 4.84711 6.41256 4.47258L9.47256 1.41259C9.59673 1.28768 9.66642 1.11871 9.66642 0.942588C9.66642 0.766465 9.59673 0.597497 9.47256 0.472589Z" fill="#F6F6F8"/>
</svg>
