<svg width="24" height="24" viewBox="0 0 30 30" fill="none" xmlns="http://www.w3.org/2000/svg">
<path d="M14.9941 6.5625C18.6185 6.5625 21.5566 9.50063 21.5566 13.125V17.0625L22.7438 18.4872C23.7615 19.7084 22.8931 21.5625 21.3034 21.5625H8.68483C7.09514 21.5625 6.22672 19.7084 7.24442 18.4872L8.43163 17.0625V13.125C8.43163 9.50063 11.3698 6.5625 14.9941 6.5625ZM14.9941 6.5625V4.6875M5.6678 9.93989C5.53784 9.08703 5.70592 8.21545 6.1437 7.47207C6.58147 6.7287 7.26217 6.159 8.07103 5.85902M24.3322 9.93989C24.4622 9.08703 24.2941 8.21545 23.8563 7.47207C23.4185 6.7287 22.7378 6.159 21.929 5.85902M18.75 21.5625C18.75 22.055 18.653 22.5426 18.4645 22.9976C18.2761 23.4525 17.9999 23.8659 17.6517 24.2141C17.3034 24.5624 16.89 24.8386 16.4351 25.027C15.9801 25.2155 15.4925 25.3125 15 25.3125C14.5075 25.3125 14.0199 25.2155 13.5649 25.027C13.11 24.8386 12.6966 24.5624 12.3483 24.2141C12.0001 23.8659 11.7239 23.4525 11.5355 22.9976C11.347 22.5426 11.25 22.055 11.25 21.5625H18.75Z" stroke="white" stroke-width="2" stroke-linecap="round" stroke-linejoin="round"/>
</svg>
