<svg width="24" height="24" viewBox="0 0 24 24" fill="none" xmlns="http://www.w3.org/2000/svg">
<g clip-path="url(#clip0_505_43403)">
<path d="M11.9992 0.75C7.08672 0.75 2.92422 3.8625 1.38672 8.25H22.6117C21.0742 3.8625 16.9117 0.75 11.9992 0.75Z" fill="#1B9D18"/>
<path d="M11.9992 23.25C16.9117 23.25 21.0742 20.1375 22.6117 15.75H1.38672C2.92422 20.1375 7.08672 23.25 11.9992 23.25Z" fill="#D01C27"/>
<path d="M1.3875 8.25C0.975 9.4125 0.75 10.6875 0.75 12C0.75 13.3125 0.975 14.5875 1.3875 15.75H22.6125C23.025 14.5875 23.25 13.3125 23.25 12C23.25 10.6875 23.025 9.4125 22.6125 8.25H1.3875Z" fill="#F9F9F9"/>
<path d="M13.6916 12.7117C14.0291 11.7367 13.6916 10.6492 12.9416 9.97422C13.8041 11.2492 13.4666 12.9367 12.2666 13.8367L12.3416 11.7367V10.0867C12.1916 10.0117 12.0791 9.93672 12.0041 9.82422C11.9291 9.93672 11.8166 10.0492 11.6666 10.0867V11.7367L11.7416 13.8367C10.5041 12.9367 10.2041 11.2492 11.0666 9.97422C10.2791 10.6492 9.97912 11.7367 10.3166 12.7117C10.5416 13.3867 10.9916 13.8742 11.5541 14.1742C11.2166 14.2867 10.8416 14.3617 10.4666 14.3617C10.9166 14.5117 11.3666 14.5117 11.7791 14.4367V14.5117L12.0041 14.8117L12.2291 14.5117V14.4367C12.6416 14.5117 13.0916 14.5117 13.5416 14.3617C13.1666 14.3617 12.7916 14.3242 12.4541 14.1742C13.0166 13.8742 13.4666 13.3492 13.6916 12.7117Z" fill="#ED4C5C"/>
<path d="M14.5142 10.9117C14.2142 10.4242 13.7267 10.0492 13.1642 9.89922C14.4017 10.8367 14.6642 12.5992 13.7267 13.8367C14.7767 13.2742 15.1142 11.9617 14.5142 10.9117ZM10.8017 9.89922C10.2392 10.0492 9.7517 10.3867 9.4517 10.9117C8.8517 11.9242 9.2267 13.2367 10.2392 13.8367C9.3392 12.5992 9.5642 10.8367 10.8017 9.89922ZM11.4392 9.74922C11.6267 9.86172 11.8892 9.82422 12.0017 9.63672C12.1142 9.82422 12.3767 9.86172 12.5642 9.74922C12.7142 9.63672 12.7892 9.44922 12.7142 9.26172C12.6767 9.48672 12.4892 9.59922 12.2642 9.56172C12.1517 9.52422 12.0767 9.48672 12.0017 9.37422C11.9642 9.48672 11.8517 9.52422 11.7392 9.56172C11.5142 9.59922 11.3267 9.44922 11.2892 9.26172C11.2142 9.44922 11.2892 9.63672 11.4392 9.74922Z" fill="#ED4C5C"/>
</g>
<defs>
<clipPath id="clip0_505_43403">
<rect width="24" height="24" fill="white"/>
</clipPath>
</defs>
</svg>
