<svg width="55" height="55" viewBox="0 0 55 55" fill="none" xmlns="http://www.w3.org/2000/svg">
<path d="M12.5119 42.3732V35.6816C12.5119 33.4587 14.2535 31.4649 16.7285 31.4649C18.9515 31.4649 20.9452 33.2066 20.9452 35.6816V42.1212C20.9452 46.5899 17.2327 50.3024 12.764 50.3024C8.29521 50.3024 4.58271 46.567 4.58271 42.1212V28.0045C4.33063 15.1253 14.5056 4.69824 27.3848 4.69824C40.264 4.69824 50.416 15.1253 50.416 27.7524V41.8691C50.416 46.3378 46.7035 50.0503 42.2348 50.0503C37.766 50.0503 34.0535 46.3378 34.0535 41.8691V35.4295C34.0535 33.2066 35.7952 31.2128 38.2702 31.2128C40.4931 31.2128 42.4869 32.9545 42.4869 35.4295V42.3732" stroke="#343239" stroke-width="2" stroke-linecap="round" stroke-linejoin="round"/>
</svg>
