<svg width="55" height="55" viewBox="0 0 55 55" fill="none" xmlns="http://www.w3.org/2000/svg">
<path d="M20.6263 43.5417C20.6263 45.2604 20.145 46.8875 19.2971 48.2625C17.7159 50.9208 14.8055 52.7083 11.4596 52.7083C8.1138 52.7083 5.20339 50.9208 3.62214 48.2625C2.77422 46.8875 2.29297 45.2604 2.29297 43.5417C2.29297 38.4771 6.39505 34.375 11.4596 34.375C16.5242 34.375 20.6263 38.4771 20.6263 43.5417Z" stroke="#343239" stroke-width="2" stroke-miterlimit="10" stroke-linecap="round" stroke-linejoin="round"/>
<path d="M7.88672 43.5407L10.1555 45.8094L15.0367 41.2949" stroke="#343239" stroke-width="2" stroke-linecap="round" stroke-linejoin="round"/>
<path d="M42 15.9822C41.4187 15.911 40.8131 15.8933 40.1834 15.8933H15.9619C15.2837 15.8933 14.6298 15.9289 14 16C14.3391 15.502 14.8235 15.0396 15.4048 14.6127L23.2768 8.81424C26.5952 6.39525 31.9723 6.39525 35.2907 8.81424L39.5294 11.9624C41.0796 13.083 41.9031 14.5059 42 15.9822Z" stroke="#343239" stroke-width="2" stroke-linecap="round" stroke-linejoin="round"/>
<path d="M50.4154 27.5003V38.9587C50.4154 45.8337 45.832 50.417 38.957 50.417H17.4841C18.1945 49.8212 18.8133 49.0878 19.2945 48.2628C20.1424 46.8878 20.6237 45.2607 20.6237 43.542C20.6237 38.4774 16.5216 34.3753 11.457 34.3753C8.70703 34.3753 6.25495 35.5899 4.58203 37.492V27.5003C4.58203 21.267 8.34036 16.9128 14.1841 16.1795C14.7799 16.0878 15.3987 16.042 16.0404 16.042H38.957C39.5529 16.042 40.1258 16.0649 40.6758 16.1565C46.5883 16.844 50.4154 21.2212 50.4154 27.5003Z" stroke="#343239" stroke-width="2" stroke-linecap="round" stroke-linejoin="round"/>
<path d="M50.4154 28.6455H43.5404C41.0195 28.6455 38.957 30.708 38.957 33.2288C38.957 35.7497 41.0195 37.8122 43.5404 37.8122H50.4154" stroke="#343239" stroke-width="2" stroke-linecap="round" stroke-linejoin="round"/>
</svg>
