<svg width="55" height="55" viewBox="0 0 55 55" fill="none" xmlns="http://www.w3.org/2000/svg">
<path d="M7.26562 17.0498L27.501 28.7602L47.5989 17.1185" stroke="#343239" stroke-width="2" stroke-linecap="round" stroke-linejoin="round"/>
<path d="M27.5 49.5227V28.7373" stroke="#343239" stroke-width="2" stroke-linecap="round" stroke-linejoin="round"/>
<path d="M49.5223 21.0143V33.9852C49.5223 34.0998 49.5224 34.1913 49.4995 34.3059C47.8953 32.908 45.8328 32.083 43.5411 32.083C41.3869 32.083 39.3932 32.8393 37.8119 34.0997C35.7036 35.7726 34.3744 38.3622 34.3744 41.2497C34.3744 42.9685 34.8557 44.5955 35.7036 45.9705C35.9098 46.3372 36.1619 46.681 36.4369 47.0018L32.2432 49.3164C29.6307 50.7831 25.3682 50.7831 22.7557 49.3164L10.5182 42.533C7.74527 40.9976 5.47656 37.1477 5.47656 33.9852V21.0143C5.47656 17.8518 7.74527 14.0018 10.5182 12.4664L22.7557 5.68301C25.3682 4.21634 29.6307 4.21634 32.2432 5.68301L44.4807 12.4664C47.2536 14.0018 49.5223 17.8518 49.5223 21.0143Z" stroke="#343239" stroke-width="2" stroke-linecap="round" stroke-linejoin="round"/>
<path d="M52.7083 41.2497C52.7083 43.9997 51.4938 46.4518 49.5917 48.1247C47.9646 49.5455 45.8563 50.4163 43.5417 50.4163C38.4771 50.4163 34.375 46.3143 34.375 41.2497C34.375 38.3622 35.7042 35.7726 37.8125 34.0997C39.3938 32.8393 41.3875 32.083 43.5417 32.083C48.6063 32.083 52.7083 36.1851 52.7083 41.2497Z" stroke="#343239" stroke-width="2" stroke-miterlimit="10" stroke-linecap="round" stroke-linejoin="round"/>
<path d="M44.1146 38.3848V41.8223L41.25 43.541" stroke="#343239" stroke-width="2" stroke-miterlimit="10" stroke-linecap="round" stroke-linejoin="round"/>
</svg>
