<svg width="55" height="55" viewBox="0 0 55 55" fill="none" xmlns="http://www.w3.org/2000/svg">
<path d="M5.73047 30.341V26.3765C5.73047 21.6327 9.60337 17.7598 14.3471 17.7598H40.6555C45.3992 17.7598 49.2721 21.6327 49.2721 26.3765V29.6765H44.643C43.3596 29.6765 42.1909 30.1806 41.343 31.0514C40.3805 31.991 39.8305 33.3431 39.968 34.7868C40.1742 37.2618 42.443 39.0722 44.918 39.0722H49.2721V41.7993C49.2721 46.5431 45.3992 50.416 40.6555 50.416H28.0971" stroke="#343239" stroke-width="2" stroke-linecap="round" stroke-linejoin="round"/>
<path d="M5.73047 28.4392V17.9664C5.73047 15.2394 7.40338 12.8101 9.94713 11.8476L28.143 4.9726C30.9846 3.89551 34.0326 6.00391 34.0326 9.05183V17.7601" stroke="#343239" stroke-width="2" stroke-linecap="round" stroke-linejoin="round"/>
<path d="M51.6956 32.0151V36.7361C51.6956 37.9965 50.6873 39.0277 49.404 39.0735H44.9123C42.4373 39.0735 40.1686 37.2631 39.9623 34.7881C39.8248 33.3444 40.3748 31.9923 41.3373 31.0527C42.1852 30.1818 43.354 29.6777 44.6373 29.6777H49.404C50.6873 29.7236 51.6956 30.7547 51.6956 32.0151Z" stroke="#343239" stroke-width="2" stroke-linecap="round" stroke-linejoin="round"/>
<path d="M16.043 27.5H32.0846" stroke="#343239" stroke-width="2" stroke-linecap="round" stroke-linejoin="round"/>
<path d="M6.875 37.8125H19.1125C20.5792 37.8125 21.7708 39.0041 21.7708 40.4708V43.4042" stroke="#343239" stroke-width="2" stroke-miterlimit="10" stroke-linecap="round" stroke-linejoin="round"/>
<path d="M9.67084 35.0166L6.875 37.8124L9.67084 40.6081" stroke="#343239" stroke-width="2" stroke-miterlimit="10" stroke-linecap="round" stroke-linejoin="round"/>
<path d="M21.7708 49.912H9.53334C8.06668 49.912 6.875 48.7202 6.875 47.2536V44.3203" stroke="#343239" stroke-width="2" stroke-miterlimit="10" stroke-linecap="round" stroke-linejoin="round"/>
<path d="M18.9766 52.7089L21.7724 49.9131L18.9766 47.1172" stroke="#343239" stroke-width="2" stroke-miterlimit="10" stroke-linecap="round" stroke-linejoin="round"/>
</svg>
