<svg width="24" height="24" viewBox="0 0 24 24" fill="none" xmlns="http://www.w3.org/2000/svg">
<g clip-path="url(#clip0_505_43387)">
<path d="M17.5009 1.91602C16.3749 1.93353 15.2734 2.24787 14.3077 2.82729C13.342 3.4067 12.5463 4.23068 12.0009 5.21602C11.4556 4.23068 10.6599 3.4067 9.69417 2.82729C8.72848 2.24787 7.62698 1.93353 6.50094 1.91602C4.70588 1.99401 3.01464 2.77927 1.79672 4.10025C0.578794 5.42123 -0.0668157 7.17054 0.000934853 8.96602C0.000934853 13.513 4.78693 18.479 8.80093 21.846C9.69715 22.5991 10.8303 23.012 12.0009 23.012C13.1716 23.012 14.3047 22.5991 15.2009 21.846C19.2149 18.479 24.0009 13.513 24.0009 8.96602C24.0687 7.17054 23.4231 5.42123 22.2052 4.10025C20.9872 2.77927 19.296 1.99401 17.5009 1.91602ZM13.9159 20.316C13.3799 20.7674 12.7017 21.0149 12.0009 21.0149C11.3002 21.0149 10.622 20.7674 10.0859 20.316C4.94793 16.005 2.00093 11.869 2.00093 8.96602C1.93258 7.70073 2.3673 6.45975 3.2103 5.51372C4.0533 4.56769 5.23617 3.99337 6.50094 3.91602C7.7657 3.99337 8.94857 4.56769 9.79157 5.51372C10.6346 6.45975 11.0693 7.70073 11.0009 8.96602C11.0009 9.23123 11.1063 9.48559 11.2938 9.67312C11.4814 9.86066 11.7357 9.96602 12.0009 9.96602C12.2662 9.96602 12.5205 9.86066 12.708 9.67312C12.8956 9.48559 13.0009 9.23123 13.0009 8.96602C12.9326 7.70073 13.3673 6.45975 14.2103 5.51372C15.0533 4.56769 16.2362 3.99337 17.5009 3.91602C18.7657 3.99337 19.9486 4.56769 20.7916 5.51372C21.6346 6.45975 22.0693 7.70073 22.0009 8.96602C22.0009 11.869 19.0539 16.005 13.9159 20.312V20.316Z" fill="#F6F6F8"/>
</g>
<defs>
<clipPath id="clip0_505_43387">
<rect width="24" height="24" fill="white"/>
</clipPath>
</defs>
</svg>
