<svg width="100" height="25" viewBox="0 0 100 25" fill="none" xmlns="http://www.w3.org/2000/svg">
<path d="M1.9668 21.6963L6.05957 19H5.59766C4.9388 18.9928 4.24056 18.7673 3.50293 18.3232C2.7653 17.8721 2.14583 17.2526 1.64453 16.4648C1.14323 15.6699 0.892578 14.7783 0.892578 13.79C0.892578 12.8447 1.12533 11.971 1.59082 11.1689C2.06348 10.3597 2.70085 9.71875 3.50293 9.24609C4.30501 8.77344 5.17871 8.53711 6.12402 8.53711H11.3877V20.1172L4.12598 24.9404L1.9668 21.6963ZM7.49902 15.1113V12.4043H6.12402C5.88053 12.4043 5.65495 12.4652 5.44727 12.5869C5.24674 12.7087 5.08561 12.8734 4.96387 13.0811C4.84212 13.2887 4.78125 13.5107 4.78125 13.7471C4.78125 14.1266 4.91016 14.4489 5.16797 14.7139C5.43294 14.9788 5.75163 15.1113 6.12402 15.1113H7.49902ZM10.1523 15.1113H12.4834L13.1602 17.0664L12.4834 19H10.1523V15.1113ZM11.7959 17.0664L12.4941 15.1113H16.8125L17.5 17.1094L16.8125 19H12.4941L11.7959 17.0664ZM16.1143 17.0664L16.8125 15.1113H21.1309L21.8184 17.1094L21.1309 19H16.8125L16.1143 17.0664ZM20.4326 17.0664L21.1309 15.1113H25.4492L26.1367 17.1094L25.4492 19H21.1309L20.4326 17.0664ZM24.751 17.0664L25.4492 15.1113H29.7676L30.4551 17.1094L29.7676 19H25.4492L24.751 17.0664ZM29.0693 17.0664L29.7676 15.1113H34.0859L34.7734 17.1094L34.0859 19H29.7676L29.0693 17.0664ZM33.3877 17.0664L34.0859 15.1113H38.4043L39.0918 17.1094L38.4043 19H34.0859L33.3877 17.0664ZM37.7061 17.0664L38.4043 15.1113H54.1738C54.4173 15.1113 54.6429 15.0505 54.8506 14.9287C55.0583 14.807 55.223 14.6423 55.3447 14.4346C55.4665 14.2269 55.5273 14.0013 55.5273 13.7578C55.5273 13.5143 55.4665 13.2923 55.3447 13.0918C55.223 12.8841 55.0583 12.7194 54.8506 12.5977C54.6429 12.4759 54.4173 12.415 54.1738 12.415H39.5V8.52637L49.0605 3.1123L51.0049 6.03418L46.6328 8.52637H54.1738C55.1191 8.52637 55.9928 8.7627 56.7949 9.23535C57.6042 9.70085 58.2451 10.3346 58.7178 11.1367C59.1904 11.9388 59.4268 12.8125 59.4268 13.7578C59.4268 14.7031 59.1904 15.5768 58.7178 16.3789C58.2451 17.181 57.6042 17.8184 56.7949 18.291C55.9928 18.7637 55.1191 19 54.1738 19H38.4043L37.7061 17.0664ZM42.9697 3.42383L47.5996 0.802734L48.3193 2.10254L43.6895 4.72363L42.9697 3.42383ZM61.9727 21.6963L66.0654 19H65.6035C64.9447 18.9928 64.2464 18.7673 63.5088 18.3232C62.7712 17.8721 62.1517 17.2526 61.6504 16.4648C61.1491 15.6699 60.8984 14.7783 60.8984 13.79C60.8984 12.8447 61.1312 11.971 61.5967 11.1689C62.0693 10.3597 62.7067 9.71875 63.5088 9.24609C64.3109 8.77344 65.1846 8.53711 66.1299 8.53711H71.3936V20.1172L64.1318 24.9404L61.9727 21.6963ZM67.5049 15.1113V12.4043H66.1299C65.8864 12.4043 65.6608 12.4652 65.4531 12.5869C65.2526 12.7087 65.0915 12.8734 64.9697 13.0811C64.848 13.2887 64.7871 13.5107 64.7871 13.7471C64.7871 14.1266 64.916 14.4489 65.1738 14.7139C65.4388 14.9788 65.7575 15.1113 66.1299 15.1113H67.5049ZM70.1582 15.1113H72.4893L73.166 17.0664L72.4893 19H70.1582V15.1113ZM71.8018 17.0664L72.5 15.1113H76.8184L77.5059 17.1094L76.8184 19H72.5L71.8018 17.0664ZM76.1201 17.0664L76.8184 15.1113H81.1367L81.8242 17.1094L81.1367 19H76.8184L76.1201 17.0664ZM80.4385 17.0664L81.1367 15.1113H85.4551L86.1426 17.1094L85.4551 19H81.1367L80.4385 17.0664ZM84.7568 17.0664L85.4551 15.1113H89.7734L90.4609 17.1094L89.7734 19H85.4551L84.7568 17.0664ZM89.0752 17.0664L89.7734 15.1113H94.0918L94.7793 17.1094L94.0918 19H89.7734L89.0752 17.0664ZM94.0166 19L93.3936 17.0664L94.0488 15.1113H94.0918C94.4642 15.1113 94.7793 14.9788 95.0371 14.7139C95.3021 14.4489 95.4346 14.1302 95.4346 13.7578V4.04688L99.3447 3.05859V13.7578C99.3447 14.7031 99.1084 15.5768 98.6357 16.3789C98.1631 17.181 97.5221 17.8184 96.7129 18.291C95.9108 18.7637 95.0371 19 94.0918 19H94.0166Z" fill="#FD295C"/>
</svg>
