<svg width="24" height="24" viewBox="0 0 24 24" fill="none" xmlns="http://www.w3.org/2000/svg">
<path d="M16.0613 21.5462C16.3425 21.2649 16.5005 20.8834 16.5005 20.4857C16.5005 20.0879 16.3425 19.7065 16.0613 19.4252L8.6363 12.0002L16.0613 4.57517C16.3345 4.29227 16.4857 3.91337 16.4823 3.52007C16.4789 3.12678 16.3211 2.75056 16.043 2.47244C15.7649 2.19433 15.3887 2.03658 14.9954 2.03316C14.6021 2.02974 14.2232 2.18094 13.9403 2.45417L5.4548 10.9397C5.1736 11.221 5.01562 11.6024 5.01562 12.0002C5.01562 12.3979 5.1736 12.7794 5.4548 13.0607L13.9403 21.5462C14.2216 21.8274 14.6031 21.9854 15.0008 21.9854C15.3986 21.9854 15.78 21.8274 16.0613 21.5462Z" fill="white"/>
</svg>
