<svg width="55" height="55" viewBox="0 0 55 55" fill="none" xmlns="http://www.w3.org/2000/svg">
<path d="M19.2031 27.4999L24.726 33.0458L35.7948 21.9541" stroke="#343239" stroke-width="2" stroke-linecap="round" stroke-linejoin="round"/>
<path d="M24.6344 5.61465C26.2156 4.26257 28.8052 4.26257 30.4094 5.61465L34.0302 8.73132C34.7177 9.32715 36.001 9.8084 36.9177 9.8084H40.8135C43.2427 9.8084 45.2365 11.8021 45.2365 14.2313V18.1271C45.2365 19.0209 45.7177 20.3272 46.3135 21.0147L49.4302 24.6355C50.7823 26.2167 50.7823 28.8063 49.4302 30.4105L46.3135 34.0313C45.7177 34.7188 45.2365 36.0022 45.2365 36.9188V40.8147C45.2365 43.2438 43.2427 45.2376 40.8135 45.2376H36.9177C36.024 45.2376 34.7177 45.7188 34.0302 46.3147L30.4094 49.4313C28.8281 50.7834 26.2385 50.7834 24.6344 49.4313L21.0135 46.3147C20.326 45.7188 19.0427 45.2376 18.126 45.2376H14.1615C11.7323 45.2376 9.73854 43.2438 9.73854 40.8147V36.8959C9.73854 36.0022 9.25729 34.7188 8.68437 34.0313L5.59062 30.3876C4.26146 28.8063 4.26146 26.2397 5.59062 24.6584L8.68437 21.0147C9.25729 20.3272 9.73854 19.0438 9.73854 18.1501V14.2084C9.73854 11.7792 11.7323 9.78548 14.1615 9.78548H18.126C19.0198 9.78548 20.326 9.30423 21.0135 8.7084L24.6344 5.61465Z" stroke="#343239" stroke-width="2" stroke-linecap="round" stroke-linejoin="round"/>
</svg>
