<svg width="19" height="19" viewBox="0 0 23 23" fill="none" xmlns="http://www.w3.org/2000/svg">
<path d="M19.6842 11.2964L20.7422 9.46792C20.8693 9.24792 20.9039 8.98644 20.8383 8.74095C20.7727 8.49547 20.6123 8.28608 20.3924 8.15883L18.562 7.10083V4.9925C18.562 4.73833 18.461 4.49458 18.2813 4.31486C18.1016 4.13513 17.8578 4.03417 17.6036 4.03417H15.4963L14.4392 2.20471C14.3116 1.98517 14.1026 1.82473 13.8575 1.75812C13.736 1.72517 13.6091 1.71668 13.4842 1.73313C13.3594 1.74958 13.239 1.79065 13.1301 1.85396L11.2997 2.91196L9.46931 1.853C9.2492 1.72592 8.98763 1.69149 8.74213 1.75726C8.49663 1.82304 8.28731 1.98365 8.16023 2.20375L7.10223 4.03417H4.99485C4.74069 4.03417 4.49693 4.13513 4.31721 4.31486C4.13749 4.49458 4.03652 4.73833 4.03652 4.9925V7.09987L2.2061 8.15788C2.09688 8.2207 2.00115 8.30448 1.92442 8.40442C1.84768 8.50435 1.79144 8.61846 1.75893 8.7402C1.72643 8.86193 1.7183 8.98889 1.73501 9.11377C1.75172 9.23866 1.79295 9.35901 1.85631 9.46792L2.91431 11.2964L1.85631 13.1249C1.7298 13.3451 1.69548 13.6064 1.76082 13.8518C1.82617 14.0972 1.98588 14.3068 2.20515 14.435L4.03556 15.493V17.6003C4.03556 17.8545 4.13653 18.0983 4.31625 18.278C4.49597 18.4577 4.73973 18.5587 4.9939 18.5587H7.10223L8.16023 20.3891C8.24507 20.5341 8.36621 20.6546 8.51172 20.7386C8.65724 20.8226 8.82212 20.8673 8.99014 20.8682C9.1569 20.8682 9.32269 20.8242 9.47027 20.7389L11.2988 19.6809L13.1292 20.7389C13.3492 20.8658 13.6106 20.9002 13.856 20.8346C14.1015 20.7691 14.3108 20.6088 14.4383 20.3891L15.4953 18.5587H17.6027C17.8569 18.5587 18.1006 18.4577 18.2803 18.278C18.4601 18.0983 18.561 17.8545 18.561 17.6003V15.493L20.3914 14.435C20.5005 14.372 20.596 14.2881 20.6726 14.1881C20.7492 14.0882 20.8053 13.9741 20.8378 13.8524C20.8703 13.7308 20.8785 13.6039 20.8619 13.4791C20.8454 13.3542 20.8043 13.2339 20.7412 13.1249L19.6842 11.2964ZM8.90294 6.49517C9.28431 6.49529 9.65002 6.64692 9.9196 6.91668C10.1892 7.18644 10.3406 7.55225 10.3404 7.93362C10.3403 8.315 10.1887 8.68071 9.91892 8.95029C9.64916 9.21987 9.28335 9.37125 8.90198 9.37112C8.5206 9.371 8.1549 9.21937 7.88531 8.94961C7.61573 8.67985 7.46435 8.31404 7.46448 7.93267C7.46461 7.55129 7.61623 7.18559 7.88599 6.916C8.15575 6.64642 8.52156 6.49504 8.90294 6.49517ZM9.19044 15.6952L7.6571 14.5461L13.4071 6.87946L14.9404 8.0285L9.19044 15.6952ZM13.6946 16.0785C13.5058 16.0784 13.3188 16.0412 13.1443 15.9689C12.9699 15.8965 12.8114 15.7906 12.6779 15.657C12.5445 15.5234 12.4386 15.3649 12.3664 15.1904C12.2942 15.0159 12.257 14.8289 12.2571 14.64C12.2572 14.4512 12.2944 14.2642 12.3667 14.0898C12.4391 13.9153 12.545 13.7569 12.6786 13.6234C12.8122 13.4899 12.9707 13.384 13.1452 13.3118C13.3197 13.2396 13.5067 13.2025 13.6956 13.2025C14.0769 13.2027 14.4426 13.3543 14.7122 13.6241C14.9818 13.8938 15.1332 14.2596 15.1331 14.641C15.1329 15.0224 14.9813 15.3881 14.7115 15.6577C14.4418 15.9272 14.076 16.0786 13.6946 16.0785Z" fill="#FD295C"/>
</svg>
